solid 
   facet normal -2.666914e-002 -1.600142e-001 -9.867544e-001
      outer loop
         vertex -2.627969e+001 6.427567e+001 -2.500000e+001
         vertex -3.110904e+001 3.529961e+001 -2.017066e+001
         vertex -2.822564e+001 6.460000e+001 -2.500000e+001
      endloop
   endfacet
   facet normal -2.666914e-002 -1.600142e-001 -9.867544e-001
      outer loop
         vertex -3.310904e+001 3.529961e+001 -2.011660e+001
         vertex -2.822564e+001 6.460000e+001 -2.500000e+001
         vertex -3.110904e+001 3.529961e+001 -2.017066e+001
      endloop
   endfacet
   facet normal -2.666914e-002 -1.600142e-001 9.867544e-001
      outer loop
         vertex -3.110904e+001 3.529961e+001 2.017066e+001
         vertex -2.822564e+001 6.460000e+001 2.500000e+001
         vertex -3.310904e+001 3.529961e+001 2.011660e+001
      endloop
   endfacet
   facet normal -2.666914e-002 -1.600142e-001 9.867544e-001
      outer loop
         vertex -2.822564e+001 6.460000e+001 2.500000e+001
         vertex -3.110904e+001 3.529961e+001 2.017066e+001
         vertex -2.627969e+001 6.427567e+001 2.500000e+001
      endloop
   endfacet
   facet normal 9.863939e-001 -1.643991e-001 0.000000e+000
      outer loop
         vertex -2.627969e+001 6.427567e+001 -2.500000e+001
         vertex -2.627969e+001 6.427567e+001 2.500000e+001
         vertex -3.110904e+001 3.529961e+001 2.017066e+001
      endloop
   endfacet
   facet normal 9.863939e-001 -1.643990e-001 0.000000e+000
      outer loop
         vertex -2.627969e+001 6.427567e+001 2.500000e+001
         vertex -2.622564e+001 6.460000e+001 2.540000e+001
         vertex -2.627969e+001 6.427567e+001 2.519460e+001
      endloop
   endfacet
   facet normal 9.863939e-001 -1.643990e-001 0.000000e+000
      outer loop
         vertex -2.622564e+001 6.460000e+001 -2.540000e+001
         vertex -2.627969e+001 6.427567e+001 -2.500000e+001
         vertex -2.627969e+001 6.427567e+001 -2.519460e+001
      endloop
   endfacet
   facet normal 9.863939e-001 -1.643991e-001 0.000000e+000
      outer loop
         vertex -3.110904e+001 3.529961e+001 -2.017066e+001
         vertex -2.627969e+001 6.427567e+001 -2.500000e+001
         vertex -3.110904e+001 3.529961e+001 2.017066e+001
      endloop
   endfacet
   facet normal 9.863939e-001 -1.643990e-001 0.000000e+000
      outer loop
         vertex -2.627969e+001 6.427567e+001 2.500000e+001
         vertex -2.622564e+001 6.460000e+001 -2.540000e+001
         vertex -2.622564e+001 6.460000e+001 2.540000e+001
      endloop
   endfacet
   facet normal 9.863939e-001 -1.643990e-001 0.000000e+000
      outer loop
         vertex -2.627969e+001 6.427567e+001 2.500000e+001
         vertex -2.627969e+001 6.427567e+001 -2.500000e+001
         vertex -2.622564e+001 6.460000e+001 -2.540000e+001
      endloop
   endfacet
   facet normal -9.863939e-001 1.643990e-001 0.000000e+000
      outer loop
         vertex -2.822564e+001 6.460000e+001 -2.500000e+001
         vertex -3.310904e+001 3.529961e+001 -2.011660e+001
         vertex -2.822564e+001 6.460000e+001 2.500000e+001
      endloop
   endfacet
   facet normal -9.863939e-001 1.643990e-001 0.000000e+000
      outer loop
         vertex -3.310904e+001 3.529961e+001 2.011660e+001
         vertex -2.822564e+001 6.460000e+001 2.500000e+001
         vertex -3.310904e+001 3.529961e+001 -2.011660e+001
      endloop
   endfacet
   facet normal -0.000000e+000 0.000000e+000 1.000000e+000
      outer loop
         vertex 4.372146e+001 9.929961e+001 4.000000e+001
         vertex 4.172146e+001 9.929961e+001 4.000000e+001
         vertex 4.172146e+001 3.529961e+001 4.000000e+001
      endloop
   endfacet
   facet normal 0.000000e+000 0.000000e+000 1.000000e+000
      outer loop
         vertex 4.372146e+001 9.929961e+001 4.000000e+001
         vertex 4.172146e+001 3.529961e+001 4.000000e+001
         vertex 4.372146e+001 3.529961e+001 4.000000e+001
      endloop
   endfacet
   facet normal -1.000000e+000 0.000000e+000 0.000000e+000
      outer loop
         vertex 4.172146e+001 9.929961e+001 4.000000e+001
         vertex 4.172146e+001 9.929961e+001 -4.000000e+001
         vertex 4.172146e+001 3.529961e+001 -4.000000e+001
      endloop
   endfacet
   facet normal -1.000000e+000 0.000000e+000 0.000000e+000
      outer loop
         vertex 4.172146e+001 9.929961e+001 4.000000e+001
         vertex 4.172146e+001 3.529961e+001 -4.000000e+001
         vertex 4.172146e+001 3.529961e+001 4.000000e+001
      endloop
   endfacet
   facet normal 0.000000e+000 0.000000e+000 -1.000000e+000
      outer loop
         vertex 4.372146e+001 9.929961e+001 -4.000000e+001
         vertex 4.372146e+001 3.529961e+001 -4.000000e+001
         vertex 4.172146e+001 3.529961e+001 -4.000000e+001
      endloop
   endfacet
   facet normal -0.000000e+000 0.000000e+000 -1.000000e+000
      outer loop
         vertex 4.172146e+001 9.929961e+001 -4.000000e+001
         vertex 4.372146e+001 9.929961e+001 -4.000000e+001
         vertex 4.172146e+001 3.529961e+001 -4.000000e+001
      endloop
   endfacet
   facet normal 1.000000e+000 -0.000000e+000 0.000000e+000
      outer loop
         vertex 4.372146e+001 9.929961e+001 4.000000e+001
         vertex 4.372146e+001 3.529961e+001 4.000000e+001
         vertex 4.372146e+001 1.002996e+002 6.500000e+000
      endloop
   endfacet
   facet normal 1.000000e+000 0.000000e+000 -0.000000e+000
      outer loop
         vertex 4.372146e+001 3.529961e+001 -4.000000e+001
         vertex 4.372146e+001 9.929961e+001 -4.000000e+001
         vertex 4.372146e+001 1.002996e+002 -6.500000e+000
      endloop
   endfacet
   facet normal 1.000000e+000 0.000000e+000 0.000000e+000
      outer loop
         vertex 4.372146e+001 9.929961e+001 -4.015560e+001
         vertex 4.372146e+001 1.022996e+002 -4.015560e+001
         vertex 4.372146e+001 9.929961e+001 -4.000000e+001
      endloop
   endfacet
   facet normal 1.000000e+000 0.000000e+000 0.000000e+000
      outer loop
         vertex 4.372146e+001 1.002996e+002 -6.500000e+000
         vertex 4.372146e+001 1.002996e+002 6.500000e+000
         vertex 4.372146e+001 3.529961e+001 4.000000e+001
      endloop
   endfacet
   facet normal 1.000000e+000 0.000000e+000 0.000000e+000
      outer loop
         vertex 4.372146e+001 1.022996e+002 6.500000e+000
         vertex 4.372146e+001 1.022996e+002 4.015560e+001
         vertex 4.372146e+001 9.929961e+001 4.000000e+001
      endloop
   endfacet
   facet normal 1.000000e+000 0.000000e+000 0.000000e+000
      outer loop
         vertex 4.372146e+001 9.929961e+001 4.015560e+001
         vertex 4.372146e+001 9.929961e+001 4.000000e+001
         vertex 4.372146e+001 1.022996e+002 4.015560e+001
      endloop
   endfacet
   facet normal 1.000000e+000 0.000000e+000 0.000000e+000
      outer loop
         vertex 4.372146e+001 1.002996e+002 -6.500000e+000
         vertex 4.372146e+001 9.929961e+001 -4.000000e+001
         vertex 4.372146e+001 1.022996e+002 -6.500000e+000
      endloop
   endfacet
   facet normal 1.000000e+000 0.000000e+000 0.000000e+000
      outer loop
         vertex 4.372146e+001 1.022996e+002 6.500000e+000
         vertex 4.372146e+001 9.929961e+001 4.000000e+001
         vertex 4.372146e+001 1.002996e+002 6.500000e+000
      endloop
   endfacet
   facet normal 1.000000e+000 0.000000e+000 0.000000e+000
      outer loop
         vertex 4.372146e+001 3.529961e+001 4.000000e+001
         vertex 4.372146e+001 3.529961e+001 -4.000000e+001
         vertex 4.372146e+001 1.002996e+002 -6.500000e+000
      endloop
   endfacet
   facet normal 1.000000e+000 0.000000e+000 -0.000000e+000
      outer loop
         vertex 4.372146e+001 9.929961e+001 -4.000000e+001
         vertex 4.372146e+001 1.022996e+002 -4.015560e+001
         vertex 4.372146e+001 1.022996e+002 -6.500000e+000
      endloop
   endfacet
   facet normal 0.000000e+000 -1.000000e+000 0.000000e+000
      outer loop
         vertex 4.372146e+001 3.529961e+001 4.000000e+001
         vertex 4.172146e+001 3.529961e+001 -4.000000e+001
         vertex 4.372146e+001 3.529961e+001 -4.000000e+001
      endloop
   endfacet
   facet normal -0.000000e+000 -1.000000e+000 0.000000e+000
      outer loop
         vertex 4.172146e+001 3.529961e+001 -4.000000e+001
         vertex 4.372146e+001 3.529961e+001 4.000000e+001
         vertex 4.172146e+001 3.529961e+001 4.000000e+001
      endloop
   endfacet
   facet normal 0.000000e+000 -1.000000e+000 -0.000000e+000
      outer loop
         vertex -3.110904e+001 3.529961e+001 -2.017066e+001
         vertex -3.110904e+001 3.529961e+001 2.017066e+001
         vertex -3.310904e+001 3.529961e+001 2.011660e+001
      endloop
   endfacet
   facet normal 0.000000e+000 -1.000000e+000 0.000000e+000
      outer loop
         vertex -3.110904e+001 3.529961e+001 -2.017066e+001
         vertex -3.310904e+001 3.529961e+001 2.011660e+001
         vertex -3.310904e+001 3.529961e+001 -2.011660e+001
      endloop
   endfacet
   facet normal -1.643996e-001 -9.863938e-001 -0.000000e+000
      outer loop
         vertex -2.627969e+001 6.427567e+001 -2.519460e+001
         vertex -2.627969e+001 6.427567e+001 -2.500000e+001
         vertex -2.822564e+001 6.460000e+001 -2.500000e+001
      endloop
   endfacet
   facet normal -1.643996e-001 -9.863938e-001 0.000000e+000
      outer loop
         vertex -2.627969e+001 6.427567e+001 2.519460e+001
         vertex -2.822564e+001 6.460000e+001 2.500000e+001
         vertex -2.627969e+001 6.427567e+001 2.500000e+001
      endloop
   endfacet
   facet normal -1.690311e-001 -5.070889e-001 -8.451564e-001
      outer loop
         vertex -2.627969e+001 6.427567e+001 -2.519460e+001
         vertex -2.822564e+001 6.460000e+001 -2.500000e+001
         vertex -2.622564e+001 6.460000e+001 -2.540000e+001
      endloop
   endfacet
   facet normal -1.690305e-001 -5.070926e-001 -8.451543e-001
      outer loop
         vertex -2.322564e+001 7.960000e+001 -3.500000e+001
         vertex -2.142564e+001 7.900000e+001 -3.500000e+001
         vertex -2.622564e+001 6.460000e+001 -2.540000e+001
      endloop
   endfacet
   facet normal -1.690307e-001 -5.070926e-001 -8.451543e-001
      outer loop
         vertex -2.322564e+001 7.960000e+001 -3.500000e+001
         vertex -2.622564e+001 6.460000e+001 -2.540000e+001
         vertex -2.822564e+001 6.460000e+001 -2.500000e+001
      endloop
   endfacet
   facet normal 9.486827e-001 -3.162296e-001 0.000000e+000
      outer loop
         vertex -2.142564e+001 7.900000e+001 3.500000e+001
         vertex -2.122564e+001 7.960000e+001 3.918772e+001
         vertex -2.142564e+001 7.900000e+001 3.708619e+001
      endloop
   endfacet
   facet normal 9.486827e-001 -3.162296e-001 0.000000e+000
      outer loop
         vertex -2.142564e+001 7.900000e+001 -3.500000e+001
         vertex -2.142564e+001 7.900000e+001 -3.708619e+001
         vertex -2.122564e+001 7.960000e+001 -3.918772e+001
      endloop
   endfacet
   facet normal 9.486833e-001 -3.162277e-001 0.000000e+000
      outer loop
         vertex -2.142564e+001 7.900000e+001 -3.500000e+001
         vertex -2.622564e+001 6.460000e+001 2.540000e+001
         vertex -2.622564e+001 6.460000e+001 -2.540000e+001
      endloop
   endfacet
   facet normal 9.486827e-001 -3.162296e-001 0.000000e+000
      outer loop
         vertex -2.122564e+001 7.960000e+001 3.918772e+001
         vertex -2.142564e+001 7.900000e+001 -3.500000e+001
         vertex -2.122564e+001 7.960000e+001 -3.918772e+001
      endloop
   endfacet
   facet normal 9.486833e-001 -3.162277e-001 0.000000e+000
      outer loop
         vertex -2.142564e+001 7.900000e+001 -3.500000e+001
         vertex -2.142564e+001 7.900000e+001 3.500000e+001
         vertex -2.622564e+001 6.460000e+001 2.540000e+001
      endloop
   endfacet
   facet normal 9.486827e-001 -3.162296e-001 0.000000e+000
      outer loop
         vertex -2.142564e+001 7.900000e+001 3.500000e+001
         vertex -2.142564e+001 7.900000e+001 -3.500000e+001
         vertex -2.122564e+001 7.960000e+001 3.918772e+001
      endloop
   endfacet
   facet normal -1.690307e-001 -5.070926e-001 8.451543e-001
      outer loop
         vertex -2.622564e+001 6.460000e+001 2.540000e+001
         vertex -2.322564e+001 7.960000e+001 3.500000e+001
         vertex -2.822564e+001 6.460000e+001 2.500000e+001
      endloop
   endfacet
   facet normal -1.690305e-001 -5.070926e-001 8.451543e-001
      outer loop
         vertex -2.322564e+001 7.960000e+001 3.500000e+001
         vertex -2.622564e+001 6.460000e+001 2.540000e+001
         vertex -2.142564e+001 7.900000e+001 3.500000e+001
      endloop
   endfacet
   facet normal -1.690311e-001 -5.070889e-001 8.451564e-001
      outer loop
         vertex -2.627969e+001 6.427567e+001 2.519460e+001
         vertex -2.622564e+001 6.460000e+001 2.540000e+001
         vertex -2.822564e+001 6.460000e+001 2.500000e+001
      endloop
   endfacet
   facet normal -9.486833e-001 3.162278e-001 0.000000e+000
      outer loop
         vertex -2.822564e+001 6.460000e+001 -2.500000e+001
         vertex -2.822564e+001 6.460000e+001 2.500000e+001
         vertex -2.322564e+001 7.960000e+001 -3.500000e+001
      endloop
   endfacet
   facet normal -9.486833e-001 3.162278e-001 0.000000e+000
      outer loop
         vertex -2.322564e+001 7.960000e+001 3.500000e+001
         vertex -2.322564e+001 7.960000e+001 -3.500000e+001
         vertex -2.822564e+001 6.460000e+001 2.500000e+001
      endloop
   endfacet
   facet normal 0.000000e+000 -1.000000e+000 0.000000e+000
      outer loop
         vertex 4.172146e+001 9.929961e+001 4.000000e+001
         vertex 4.372146e+001 9.929961e+001 4.000000e+001
         vertex 4.372146e+001 9.929961e+001 4.015560e+001
      endloop
   endfacet
   facet normal -0.000000e+000 -1.000000e+000 -0.000000e+000
      outer loop
         vertex 4.372146e+001 9.929961e+001 -4.015560e+001
         vertex 4.372146e+001 9.929961e+001 -4.000000e+001
         vertex 4.172146e+001 9.929961e+001 -4.000000e+001
      endloop
   endfacet
   facet normal 0.000000e+000 -1.000000e+000 0.000000e+000
      outer loop
         vertex 1.372146e+001 9.929961e+001 -6.500000e+000
         vertex -6.518283e+000 9.929961e+001 -8.000000e+001
         vertex 2.843710e+000 9.929961e+001 -8.000000e+001
      endloop
   endfacet
   facet normal -0.000000e+000 -1.000000e+000 0.000000e+000
      outer loop
         vertex -1.278540e+000 9.929961e+001 4.000000e+001
         vertex 2.843710e+000 9.929961e+001 8.000000e+001
         vertex -6.518283e+000 9.929961e+001 8.000000e+001
      endloop
   endfacet
   facet normal 0.000000e+000 -1.000000e+000 0.000000e+000
      outer loop
         vertex 4.172146e+001 9.929961e+001 4.000000e+001
         vertex 3.340858e+000 9.929961e+001 3.691342e+001
         vertex 3.721460e+000 9.929961e+001 3.500000e+001
      endloop
   endfacet
   facet normal 0.000000e+000 -1.000000e+000 0.000000e+000
      outer loop
         vertex 2.843710e+000 9.929961e+001 8.000000e+001
         vertex 6.348770e-001 9.929961e+001 3.961940e+001
         vertex 2.256994e+000 9.929961e+001 3.853553e+001
      endloop
   endfacet
   facet normal 0.000000e+000 -1.000000e+000 0.000000e+000
      outer loop
         vertex -6.518283e+000 9.929961e+001 8.000000e+001
         vertex -3.191957e+000 9.929961e+001 3.961940e+001
         vertex -1.278540e+000 9.929961e+001 4.000000e+001
      endloop
   endfacet
   facet normal 0.000000e+000 -1.000000e+000 0.000000e+000
      outer loop
         vertex -6.518283e+000 9.929961e+001 8.000000e+001
         vertex -5.897938e+000 9.929961e+001 3.691342e+001
         vertex -4.814074e+000 9.929961e+001 3.853553e+001
      endloop
   endfacet
   facet normal -0.000000e+000 -1.000000e+000 0.000000e+000
      outer loop
         vertex -6.518283e+000 9.929961e+001 -8.000000e+001
         vertex -5.897938e+000 9.929961e+001 3.308658e+001
         vertex -6.278540e+000 9.929961e+001 3.500000e+001
      endloop
   endfacet
   facet normal -0.000000e+000 -1.000000e+000 -0.000000e+000
      outer loop
         vertex 1.372146e+001 9.929961e+001 -6.500000e+000
         vertex -3.191957e+000 9.929961e+001 3.038060e+001
         vertex -4.814074e+000 9.929961e+001 3.146447e+001
      endloop
   endfacet
   facet normal 0.000000e+000 -1.000000e+000 -0.000000e+000
      outer loop
         vertex 1.372146e+001 9.929961e+001 6.500000e+000
         vertex 6.348770e-001 9.929961e+001 3.038060e+001
         vertex -1.278540e+000 9.929961e+001 3.000000e+001
      endloop
   endfacet
   facet normal 0.000000e+000 -1.000000e+000 -0.000000e+000
      outer loop
         vertex 1.372146e+001 9.929961e+001 6.500000e+000
         vertex 3.340858e+000 9.929961e+001 3.308658e+001
         vertex 2.256994e+000 9.929961e+001 3.146447e+001
      endloop
   endfacet
   facet normal 0.000000e+000 -1.000000e+000 0.000000e+000
      outer loop
         vertex -3.191957e+000 9.929961e+001 3.038060e+001
         vertex 1.372146e+001 9.929961e+001 -6.500000e+000
         vertex 1.372146e+001 9.929961e+001 6.500000e+000
      endloop
   endfacet
   facet normal 0.000000e+000 -1.000000e+000 0.000000e+000
      outer loop
         vertex 4.172146e+001 9.929961e+001 -4.000000e+001
         vertex 3.972146e+001 9.929961e+001 6.500000e+000
         vertex 3.972146e+001 9.929961e+001 -6.500000e+000
      endloop
   endfacet
   facet normal 0.000000e+000 -1.000000e+000 0.000000e+000
      outer loop
         vertex 2.843710e+000 9.929961e+001 8.000000e+001
         vertex 4.172146e+001 9.929961e+001 4.000000e+001
         vertex 4.372146e+001 9.929961e+001 4.015560e+001
      endloop
   endfacet
   facet normal 0.000000e+000 -1.000000e+000 0.000000e+000
      outer loop
         vertex -4.814074e+000 9.929961e+001 3.146447e+001
         vertex -6.518283e+000 9.929961e+001 -8.000000e+001
         vertex 1.372146e+001 9.929961e+001 -6.500000e+000
      endloop
   endfacet
   facet normal 0.000000e+000 -1.000000e+000 0.000000e+000
      outer loop
         vertex 3.340858e+000 9.929961e+001 3.308658e+001
         vertex 4.172146e+001 9.929961e+001 4.000000e+001
         vertex 3.721460e+000 9.929961e+001 3.500000e+001
      endloop
   endfacet
   facet normal 0.000000e+000 -1.000000e+000 0.000000e+000
      outer loop
         vertex -1.278540e+000 9.929961e+001 4.000000e+001
         vertex 6.348770e-001 9.929961e+001 3.961940e+001
         vertex 2.843710e+000 9.929961e+001 8.000000e+001
      endloop
   endfacet
   facet normal 0.000000e+000 -1.000000e+000 0.000000e+000
      outer loop
         vertex -6.518283e+000 9.929961e+001 8.000000e+001
         vertex -6.518283e+000 9.929961e+001 -8.000000e+001
         vertex -6.278540e+000 9.929961e+001 3.500000e+001
      endloop
   endfacet
   facet normal 0.000000e+000 -1.000000e+000 0.000000e+000
      outer loop
         vertex 2.256994e+000 9.929961e+001 3.146447e+001
         vertex 6.348770e-001 9.929961e+001 3.038060e+001
         vertex 1.372146e+001 9.929961e+001 6.500000e+000
      endloop
   endfacet
   facet normal 0.000000e+000 -1.000000e+000 0.000000e+000
      outer loop
         vertex 1.372146e+001 9.929961e+001 -6.500000e+000
         vertex 4.172146e+001 9.929961e+001 -4.000000e+001
         vertex 3.972146e+001 9.929961e+001 -6.500000e+000
      endloop
   endfacet
   facet normal 0.000000e+000 -1.000000e+000 0.000000e+000
      outer loop
         vertex -5.897938e+000 9.929961e+001 3.308658e+001
         vertex -6.518283e+000 9.929961e+001 -8.000000e+001
         vertex -4.814074e+000 9.929961e+001 3.146447e+001
      endloop
   endfacet
   facet normal 0.000000e+000 -1.000000e+000 0.000000e+000
      outer loop
         vertex 3.972146e+001 9.929961e+001 6.500000e+000
         vertex 4.172146e+001 9.929961e+001 -4.000000e+001
         vertex 4.172146e+001 9.929961e+001 4.000000e+001
      endloop
   endfacet
   facet normal 0.000000e+000 -1.000000e+000 0.000000e+000
      outer loop
         vertex 4.172146e+001 9.929961e+001 4.000000e+001
         vertex 2.256994e+000 9.929961e+001 3.853553e+001
         vertex 3.340858e+000 9.929961e+001 3.691342e+001
      endloop
   endfacet
   facet normal 0.000000e+000 -1.000000e+000 0.000000e+000
      outer loop
         vertex -6.518283e+000 9.929961e+001 8.000000e+001
         vertex -6.278540e+000 9.929961e+001 3.500000e+001
         vertex -5.897938e+000 9.929961e+001 3.691342e+001
      endloop
   endfacet
   facet normal 0.000000e+000 -1.000000e+000 0.000000e+000
      outer loop
         vertex 4.172146e+001 9.929961e+001 4.000000e+001
         vertex 1.372146e+001 9.929961e+001 6.500000e+000
         vertex 3.972146e+001 9.929961e+001 6.500000e+000
      endloop
   endfacet
   facet normal 0.000000e+000 -1.000000e+000 -0.000000e+000
      outer loop
         vertex 4.172146e+001 9.929961e+001 -4.000000e+001
         vertex 1.372146e+001 9.929961e+001 -6.500000e+000
         vertex 2.843710e+000 9.929961e+001 -8.000000e+001
      endloop
   endfacet
   facet normal -0.000000e+000 -1.000000e+000 0.000000e+000
      outer loop
         vertex -4.814074e+000 9.929961e+001 3.853553e+001
         vertex -3.191957e+000 9.929961e+001 3.961940e+001
         vertex -6.518283e+000 9.929961e+001 8.000000e+001
      endloop
   endfacet
   facet normal 0.000000e+000 -1.000000e+000 0.000000e+000
      outer loop
         vertex -1.278540e+000 9.929961e+001 3.000000e+001
         vertex -3.191957e+000 9.929961e+001 3.038060e+001
         vertex 1.372146e+001 9.929961e+001 6.500000e+000
      endloop
   endfacet
   facet normal 0.000000e+000 -1.000000e+000 0.000000e+000
      outer loop
         vertex 3.340858e+000 9.929961e+001 3.308658e+001
         vertex 1.372146e+001 9.929961e+001 6.500000e+000
         vertex 4.172146e+001 9.929961e+001 4.000000e+001
      endloop
   endfacet
   facet normal 0.000000e+000 -1.000000e+000 0.000000e+000
      outer loop
         vertex 4.172146e+001 9.929961e+001 -4.000000e+001
         vertex 2.843710e+000 9.929961e+001 -8.000000e+001
         vertex 4.372146e+001 9.929961e+001 -4.015560e+001
      endloop
   endfacet
   facet normal -0.000000e+000 -1.000000e+000 0.000000e+000
      outer loop
         vertex 2.256994e+000 9.929961e+001 3.853553e+001
         vertex 4.172146e+001 9.929961e+001 4.000000e+001
         vertex 2.843710e+000 9.929961e+001 8.000000e+001
      endloop
   endfacet
   facet normal 6.979977e-001 0.000000e+000 -7.161000e-001
      outer loop
         vertex 4.372146e+001 1.022996e+002 -4.015560e+001
         vertex 4.372146e+001 9.929961e+001 -4.015560e+001
         vertex 2.843710e+000 1.022996e+002 -8.000000e+001
      endloop
   endfacet
   facet normal 6.979977e-001 0.000000e+000 -7.161000e-001
      outer loop
         vertex 2.843710e+000 9.929961e+001 -8.000000e+001
         vertex 2.843710e+000 1.022996e+002 -8.000000e+001
         vertex 4.372146e+001 9.929961e+001 -4.015560e+001
      endloop
   endfacet
   facet normal 0.000000e+000 1.000000e+000 0.000000e+000
      outer loop
         vertex -6.278540e+000 1.022996e+002 -8.000000e+001
         vertex -6.278540e+000 1.022996e+002 3.500000e+001
         vertex -5.897938e+000 1.022996e+002 3.308658e+001
      endloop
   endfacet
   facet normal 0.000000e+000 1.000000e+000 0.000000e+000
      outer loop
         vertex -4.814074e+000 1.022996e+002 3.146447e+001
         vertex -3.191957e+000 1.022996e+002 3.038060e+001
         vertex 9.721459e+000 1.022996e+002 6.500000e+000
      endloop
   endfacet
   facet normal 0.000000e+000 1.000000e+000 0.000000e+000
      outer loop
         vertex -1.278540e+000 1.022996e+002 3.000000e+001
         vertex 6.348770e-001 1.022996e+002 3.038060e+001
         vertex 9.721459e+000 1.022996e+002 6.500000e+000
      endloop
   endfacet
   facet normal 0.000000e+000 1.000000e+000 0.000000e+000
      outer loop
         vertex 2.256994e+000 1.022996e+002 3.146447e+001
         vertex 3.340858e+000 1.022996e+002 3.308658e+001
         vertex 9.721459e+000 1.022996e+002 6.500000e+000
      endloop
   endfacet
   facet normal -0.000000e+000 1.000000e+000 0.000000e+000
      outer loop
         vertex 3.721460e+000 1.022996e+002 3.500000e+001
         vertex 3.340858e+000 1.022996e+002 3.691342e+001
         vertex 4.372146e+001 1.022996e+002 4.015560e+001
      endloop
   endfacet
   facet normal -0.000000e+000 1.000000e+000 0.000000e+000
      outer loop
         vertex 2.256994e+000 1.022996e+002 3.853553e+001
         vertex 6.348770e-001 1.022996e+002 3.961940e+001
         vertex 2.843710e+000 1.022996e+002 8.000000e+001
      endloop
   endfacet
   facet normal 0.000000e+000 1.000000e+000 -0.000000e+000
      outer loop
         vertex -1.278540e+000 1.022996e+002 4.000000e+001
         vertex -3.191957e+000 1.022996e+002 3.961940e+001
         vertex -6.278540e+000 1.022996e+002 8.000000e+001
      endloop
   endfacet
   facet normal 0.000000e+000 1.000000e+000 -0.000000e+000
      outer loop
         vertex -4.814074e+000 1.022996e+002 3.853553e+001
         vertex -5.897938e+000 1.022996e+002 3.691342e+001
         vertex -6.278540e+000 1.022996e+002 8.000000e+001
      endloop
   endfacet
   facet normal 0.000000e+000 1.000000e+000 0.000000e+000
      outer loop
         vertex -6.278540e+000 1.022996e+002 3.500000e+001
         vertex -6.278540e+000 1.022996e+002 8.000000e+001
         vertex -5.897938e+000 1.022996e+002 3.691342e+001
      endloop
   endfacet
   facet normal 0.000000e+000 1.000000e+000 -0.000000e+000
      outer loop
         vertex 4.372146e+001 1.022996e+002 4.015560e+001
         vertex 4.372146e+001 1.022996e+002 6.500000e+000
         vertex 9.721459e+000 1.022996e+002 6.500000e+000
      endloop
   endfacet
   facet normal 0.000000e+000 1.000000e+000 0.000000e+000
      outer loop
         vertex 9.721459e+000 1.022996e+002 -6.500000e+000
         vertex 4.372146e+001 1.022996e+002 -6.500000e+000
         vertex 4.372146e+001 1.022996e+002 -4.015560e+001
      endloop
   endfacet
   facet normal 0.000000e+000 1.000000e+000 0.000000e+000
      outer loop
         vertex 2.843710e+000 1.022996e+002 -8.000000e+001
         vertex -6.278540e+000 1.022996e+002 -8.000000e+001
         vertex 9.721459e+000 1.022996e+002 -6.500000e+000
      endloop
   endfacet
   facet normal 0.000000e+000 1.000000e+000 0.000000e+000
      outer loop
         vertex -4.814074e+000 1.022996e+002 3.146447e+001
         vertex 9.721459e+000 1.022996e+002 6.500000e+000
         vertex 9.721459e+000 1.022996e+002 -6.500000e+000
      endloop
   endfacet
   facet normal -0.000000e+000 1.000000e+000 0.000000e+000
      outer loop
         vertex 9.721459e+000 1.022996e+002 6.500000e+000
         vertex 6.348770e-001 1.022996e+002 3.038060e+001
         vertex 2.256994e+000 1.022996e+002 3.146447e+001
      endloop
   endfacet
   facet normal 0.000000e+000 1.000000e+000 -0.000000e+000
      outer loop
         vertex 4.372146e+001 1.022996e+002 4.015560e+001
         vertex 3.340858e+000 1.022996e+002 3.691342e+001
         vertex 2.256994e+000 1.022996e+002 3.853553e+001
      endloop
   endfacet
   facet normal -0.000000e+000 1.000000e+000 0.000000e+000
      outer loop
         vertex -1.278540e+000 1.022996e+002 4.000000e+001
         vertex -6.278540e+000 1.022996e+002 8.000000e+001
         vertex 2.843710e+000 1.022996e+002 8.000000e+001
      endloop
   endfacet
   facet normal 0.000000e+000 1.000000e+000 -0.000000e+000
      outer loop
         vertex 4.372146e+001 1.022996e+002 4.015560e+001
         vertex 9.721459e+000 1.022996e+002 6.500000e+000
         vertex 3.340858e+000 1.022996e+002 3.308658e+001
      endloop
   endfacet
   facet normal 0.000000e+000 1.000000e+000 0.000000e+000
      outer loop
         vertex 9.721459e+000 1.022996e+002 -6.500000e+000
         vertex -6.278540e+000 1.022996e+002 -8.000000e+001
         vertex -5.897938e+000 1.022996e+002 3.308658e+001
      endloop
   endfacet
   facet normal 0.000000e+000 1.000000e+000 0.000000e+000
      outer loop
         vertex -1.278540e+000 1.022996e+002 4.000000e+001
         vertex 2.843710e+000 1.022996e+002 8.000000e+001
         vertex 6.348770e-001 1.022996e+002 3.961940e+001
      endloop
   endfacet
   facet normal 0.000000e+000 1.000000e+000 0.000000e+000
      outer loop
         vertex -5.897938e+000 1.022996e+002 3.308658e+001
         vertex -4.814074e+000 1.022996e+002 3.146447e+001
         vertex 9.721459e+000 1.022996e+002 -6.500000e+000
      endloop
   endfacet
   facet normal -0.000000e+000 1.000000e+000 0.000000e+000
      outer loop
         vertex 3.340858e+000 1.022996e+002 3.308658e+001
         vertex 3.721460e+000 1.022996e+002 3.500000e+001
         vertex 4.372146e+001 1.022996e+002 4.015560e+001
      endloop
   endfacet
   facet normal 0.000000e+000 1.000000e+000 0.000000e+000
      outer loop
         vertex 2.843710e+000 1.022996e+002 8.000000e+001
         vertex 4.372146e+001 1.022996e+002 4.015560e+001
         vertex 2.256994e+000 1.022996e+002 3.853553e+001
      endloop
   endfacet
   facet normal 0.000000e+000 1.000000e+000 0.000000e+000
      outer loop
         vertex 9.721459e+000 1.022996e+002 6.500000e+000
         vertex -3.191957e+000 1.022996e+002 3.038060e+001
         vertex -1.278540e+000 1.022996e+002 3.000000e+001
      endloop
   endfacet
   facet normal 0.000000e+000 1.000000e+000 0.000000e+000
      outer loop
         vertex 9.721459e+000 1.022996e+002 -6.500000e+000
         vertex 4.372146e+001 1.022996e+002 -4.015560e+001
         vertex 2.843710e+000 1.022996e+002 -8.000000e+001
      endloop
   endfacet
   facet normal 0.000000e+000 1.000000e+000 -0.000000e+000
      outer loop
         vertex -3.191957e+000 1.022996e+002 3.961940e+001
         vertex -4.814074e+000 1.022996e+002 3.853553e+001
         vertex -6.278540e+000 1.022996e+002 8.000000e+001
      endloop
   endfacet
   facet normal 0.000000e+000 -0.000000e+000 1.000000e+000
      outer loop
         vertex 1.372146e+001 9.929961e+001 -6.500000e+000
         vertex 3.972146e+001 9.929961e+001 -6.500000e+000
         vertex 3.972146e+001 1.002996e+002 -6.500000e+000
      endloop
   endfacet
   facet normal 0.000000e+000 0.000000e+000 1.000000e+000
      outer loop
         vertex 4.372146e+001 1.002996e+002 -6.500000e+000
         vertex 4.372146e+001 1.022996e+002 -6.500000e+000
         vertex 3.972146e+001 1.002996e+002 -6.500000e+000
      endloop
   endfacet
   facet normal 0.000000e+000 0.000000e+000 1.000000e+000
      outer loop
         vertex 9.721459e+000 1.002996e+002 -6.500000e+000
         vertex 1.372146e+001 1.002996e+002 -6.500000e+000
         vertex 9.721459e+000 1.022996e+002 -6.500000e+000
      endloop
   endfacet
   facet normal 0.000000e+000 0.000000e+000 1.000000e+000
      outer loop
         vertex 3.972146e+001 1.002996e+002 -6.500000e+000
         vertex 4.372146e+001 1.022996e+002 -6.500000e+000
         vertex 9.721459e+000 1.022996e+002 -6.500000e+000
      endloop
   endfacet
   facet normal 0.000000e+000 0.000000e+000 1.000000e+000
      outer loop
         vertex 1.372146e+001 1.002996e+002 -6.500000e+000
         vertex 1.372146e+001 9.929961e+001 -6.500000e+000
         vertex 3.972146e+001 1.002996e+002 -6.500000e+000
      endloop
   endfacet
   facet normal 0.000000e+000 0.000000e+000 1.000000e+000
      outer loop
         vertex 3.972146e+001 1.002996e+002 -6.500000e+000
         vertex 9.721459e+000 1.022996e+002 -6.500000e+000
         vertex 1.372146e+001 1.002996e+002 -6.500000e+000
      endloop
   endfacet
   facet normal -0.000000e+000 1.000000e+000 0.000000e+000
      outer loop
         vertex 3.972146e+001 1.002996e+002 -6.500000e+000
         vertex 3.972146e+001 1.002996e+002 6.500000e+000
         vertex 4.372146e+001 1.002996e+002 6.500000e+000
      endloop
   endfacet
   facet normal 0.000000e+000 1.000000e+000 0.000000e+000
      outer loop
         vertex 4.372146e+001 1.002996e+002 -6.500000e+000
         vertex 3.972146e+001 1.002996e+002 -6.500000e+000
         vertex 4.372146e+001 1.002996e+002 6.500000e+000
      endloop
   endfacet
   facet normal -0.000000e+000 -0.000000e+000 -1.000000e+000
      outer loop
         vertex 1.372146e+001 1.002996e+002 6.500000e+000
         vertex 3.972146e+001 1.002996e+002 6.500000e+000
         vertex 3.972146e+001 9.929961e+001 6.500000e+000
      endloop
   endfacet
   facet normal 0.000000e+000 -0.000000e+000 -1.000000e+000
      outer loop
         vertex 3.972146e+001 1.002996e+002 6.500000e+000
         vertex 4.372146e+001 1.022996e+002 6.500000e+000
         vertex 4.372146e+001 1.002996e+002 6.500000e+000
      endloop
   endfacet
   facet normal 0.000000e+000 0.000000e+000 -1.000000e+000
      outer loop
         vertex 9.721459e+000 1.022996e+002 6.500000e+000
         vertex 1.372146e+001 1.002996e+002 6.500000e+000
         vertex 9.721459e+000 1.002996e+002 6.500000e+000
      endloop
   endfacet
   facet normal 0.000000e+000 0.000000e+000 -1.000000e+000
      outer loop
         vertex 1.372146e+001 9.929961e+001 6.500000e+000
         vertex 1.372146e+001 1.002996e+002 6.500000e+000
         vertex 3.972146e+001 9.929961e+001 6.500000e+000
      endloop
   endfacet
   facet normal 0.000000e+000 0.000000e+000 -1.000000e+000
      outer loop
         vertex 3.972146e+001 1.002996e+002 6.500000e+000
         vertex 9.721459e+000 1.022996e+002 6.500000e+000
         vertex 4.372146e+001 1.022996e+002 6.500000e+000
      endloop
   endfacet
   facet normal 0.000000e+000 0.000000e+000 -1.000000e+000
      outer loop
         vertex 3.972146e+001 1.002996e+002 6.500000e+000
         vertex 1.372146e+001 1.002996e+002 6.500000e+000
         vertex 9.721459e+000 1.022996e+002 6.500000e+000
      endloop
   endfacet
   facet normal 6.979977e-001 -0.000000e+000 7.161000e-001
      outer loop
         vertex 2.843710e+000 1.022996e+002 8.000000e+001
         vertex 2.843710e+000 9.929961e+001 8.000000e+001
         vertex 4.372146e+001 9.929961e+001 4.015560e+001
      endloop
   endfacet
   facet normal 6.979977e-001 -0.000000e+000 7.161000e-001
      outer loop
         vertex 2.843710e+000 1.022996e+002 8.000000e+001
         vertex 4.372146e+001 9.929961e+001 4.015560e+001
         vertex 4.372146e+001 1.022996e+002 4.015560e+001
      endloop
   endfacet
   facet normal -3.162272e-001 -9.486835e-001 -0.000000e+000
      outer loop
         vertex -2.142564e+001 7.900000e+001 -3.708619e+001
         vertex -2.142564e+001 7.900000e+001 -3.500000e+001
         vertex -2.322564e+001 7.960000e+001 -3.500000e+001
      endloop
   endfacet
   facet normal -3.162272e-001 -9.486835e-001 0.000000e+000
      outer loop
         vertex -2.142564e+001 7.900000e+001 3.708619e+001
         vertex -2.322564e+001 7.960000e+001 3.500000e+001
         vertex -2.142564e+001 7.900000e+001 3.500000e+001
      endloop
   endfacet
   facet normal -5.752261e-001 -7.704827e-001 -2.747206e-001
      outer loop
         vertex -2.142564e+001 7.900000e+001 -3.708619e+001
         vertex -2.322564e+001 7.960000e+001 -3.500000e+001
         vertex -2.122564e+001 7.960000e+001 -3.918772e+001
      endloop
   endfacet
   facet normal -5.752267e-001 -7.704820e-001 -2.747211e-001
      outer loop
         vertex -1.724319e+001 8.761313e+001 -7.000000e+001
         vertex -1.595898e+001 8.665437e+001 -7.000000e+001
         vertex -2.122564e+001 7.960000e+001 -3.918772e+001
      endloop
   endfacet
   facet normal -5.752271e-001 -7.704817e-001 -2.747211e-001
      outer loop
         vertex -1.724319e+001 8.761313e+001 -7.000000e+001
         vertex -2.122564e+001 7.960000e+001 -3.918772e+001
         vertex -2.322564e+001 7.960000e+001 -3.500000e+001
      endloop
   endfacet
   facet normal 8.013134e-001 -5.982447e-001 -5.663342e-007
      outer loop
         vertex -6.518283e+000 9.929961e+001 8.000000e+001
         vertex -7.497019e+000 9.798866e+001 8.000000e+001
         vertex -1.595898e+001 8.665437e+001 7.000000e+001
      endloop
   endfacet
   facet normal 8.013134e-001 -5.982447e-001 5.663342e-007
      outer loop
         vertex -1.595898e+001 8.665437e+001 -7.000000e+001
         vertex -7.497019e+000 9.798866e+001 -8.000000e+001
         vertex -6.518283e+000 9.929961e+001 -8.000000e+001
      endloop
   endfacet
   facet normal 8.013132e-001 -5.982451e-001 0.000000e+000
      outer loop
         vertex -6.518283e+000 9.929961e+001 8.000000e+001
         vertex -2.122564e+001 7.960000e+001 3.918772e+001
         vertex -2.122564e+001 7.960000e+001 -3.918772e+001
      endloop
   endfacet
   facet normal 8.013133e-001 -5.982450e-001 -6.953595e-008
      outer loop
         vertex -2.122564e+001 7.960000e+001 3.918772e+001
         vertex -6.518283e+000 9.929961e+001 8.000000e+001
         vertex -1.595898e+001 8.665437e+001 7.000000e+001
      endloop
   endfacet
   facet normal 8.013132e-001 -5.982451e-001 0.000000e+000
      outer loop
         vertex -2.122564e+001 7.960000e+001 -3.918772e+001
         vertex -6.518283e+000 9.929961e+001 -8.000000e+001
         vertex -6.518283e+000 9.929961e+001 8.000000e+001
      endloop
   endfacet
   facet normal 8.013133e-001 -5.982450e-001 6.953595e-008
      outer loop
         vertex -2.122564e+001 7.960000e+001 -3.918772e+001
         vertex -1.595898e+001 8.665437e+001 -7.000000e+001
         vertex -6.518283e+000 9.929961e+001 -8.000000e+001
      endloop
   endfacet
   facet normal -5.752271e-001 -7.704817e-001 2.747211e-001
      outer loop
         vertex -2.122564e+001 7.960000e+001 3.918772e+001
         vertex -1.724319e+001 8.761313e+001 7.000000e+001
         vertex -2.322564e+001 7.960000e+001 3.500000e+001
      endloop
   endfacet
   facet normal -5.752267e-001 -7.704820e-001 2.747211e-001
      outer loop
         vertex -1.724319e+001 8.761313e+001 7.000000e+001
         vertex -2.122564e+001 7.960000e+001 3.918772e+001
         vertex -1.595898e+001 8.665437e+001 7.000000e+001
      endloop
   endfacet
   facet normal -5.752261e-001 -7.704827e-001 2.747206e-001
      outer loop
         vertex -2.142564e+001 7.900000e+001 3.708619e+001
         vertex -2.122564e+001 7.960000e+001 3.918772e+001
         vertex -2.322564e+001 7.960000e+001 3.500000e+001
      endloop
   endfacet
   facet normal -8.013132e-001 5.982451e-001 0.000000e+000
      outer loop
         vertex -2.322564e+001 7.960000e+001 -3.500000e+001
         vertex -2.322564e+001 7.960000e+001 3.500000e+001
         vertex -6.278540e+000 1.022996e+002 3.500000e+001
      endloop
   endfacet
   facet normal -8.013132e-001 5.982451e-001 3.038547e-008
      outer loop
         vertex -1.724319e+001 8.761313e+001 7.000000e+001
         vertex -8.781225e+000 9.894742e+001 8.000000e+001
         vertex -6.278540e+000 1.022996e+002 8.000000e+001
      endloop
   endfacet
   facet normal -8.013132e-001 5.982451e-001 0.000000e+000
      outer loop
         vertex -6.278540e+000 1.022996e+002 3.500000e+001
         vertex -6.278540e+000 1.022996e+002 -8.000000e+001
         vertex -2.322564e+001 7.960000e+001 -3.500000e+001
      endloop
   endfacet
   facet normal -8.013132e-001 5.982451e-001 -3.038547e-008
      outer loop
         vertex -8.781225e+000 9.894742e+001 -8.000000e+001
         vertex -1.724319e+001 8.761313e+001 -7.000000e+001
         vertex -6.278540e+000 1.022996e+002 -8.000000e+001
      endloop
   endfacet
   facet normal -8.013132e-001 5.982451e-001 0.000000e+000
      outer loop
         vertex -1.724319e+001 8.761313e+001 7.000000e+001
         vertex -6.278540e+000 1.022996e+002 8.000000e+001
         vertex -6.278540e+000 1.022996e+002 3.500000e+001
      endloop
   endfacet
   facet normal -8.013132e-001 5.982451e-001 1.347968e-008
      outer loop
         vertex -1.724319e+001 8.761313e+001 7.000000e+001
         vertex -6.278540e+000 1.022996e+002 3.500000e+001
         vertex -2.322564e+001 7.960000e+001 3.500000e+001
      endloop
   endfacet
   facet normal -8.013132e-001 5.982451e-001 -2.468203e-008
      outer loop
         vertex -1.724319e+001 8.761313e+001 -7.000000e+001
         vertex -2.322564e+001 7.960000e+001 -3.500000e+001
         vertex -6.278540e+000 1.022996e+002 -8.000000e+001
      endloop
   endfacet
   facet normal 0.000000e+000 0.000000e+000 1.000000e+000
      outer loop
         vertex -6.518283e+000 9.929961e+001 8.000000e+001
         vertex 2.843710e+000 9.929961e+001 8.000000e+001
         vertex -6.278540e+000 1.022996e+002 8.000000e+001
      endloop
   endfacet
   facet normal -0.000000e+000 0.000000e+000 1.000000e+000
      outer loop
         vertex 2.843710e+000 1.022996e+002 8.000000e+001
         vertex -6.278540e+000 1.022996e+002 8.000000e+001
         vertex 2.843710e+000 9.929961e+001 8.000000e+001
      endloop
   endfacet
   facet normal 0.000000e+000 0.000000e+000 1.000000e+000
      outer loop
         vertex -7.497019e+000 9.798866e+001 8.000000e+001
         vertex -6.518283e+000 9.929961e+001 8.000000e+001
         vertex -8.781225e+000 9.894742e+001 8.000000e+001
      endloop
   endfacet
   facet normal 0.000000e+000 0.000000e+000 1.000000e+000
      outer loop
         vertex -6.278540e+000 1.022996e+002 8.000000e+001
         vertex -8.781225e+000 9.894742e+001 8.000000e+001
         vertex -6.518283e+000 9.929961e+001 8.000000e+001
      endloop
   endfacet
   facet normal -0.000000e+000 -0.000000e+000 -1.000000e+000
      outer loop
         vertex -6.278540e+000 1.022996e+002 -8.000000e+001
         vertex 2.843710e+000 1.022996e+002 -8.000000e+001
         vertex 2.843710e+000 9.929961e+001 -8.000000e+001
      endloop
   endfacet
   facet normal 0.000000e+000 0.000000e+000 -1.000000e+000
      outer loop
         vertex -6.518283e+000 9.929961e+001 -8.000000e+001
         vertex -7.497019e+000 9.798866e+001 -8.000000e+001
         vertex -8.781225e+000 9.894742e+001 -8.000000e+001
      endloop
   endfacet
   facet normal 0.000000e+000 -0.000000e+000 -1.000000e+000
      outer loop
         vertex -6.518283e+000 9.929961e+001 -8.000000e+001
         vertex -6.278540e+000 1.022996e+002 -8.000000e+001
         vertex 2.843710e+000 9.929961e+001 -8.000000e+001
      endloop
   endfacet
   facet normal 0.000000e+000 0.000000e+000 -1.000000e+000
      outer loop
         vertex -6.518283e+000 9.929961e+001 -8.000000e+001
         vertex -8.781225e+000 9.894742e+001 -8.000000e+001
         vertex -6.278540e+000 1.022996e+002 -8.000000e+001
      endloop
   endfacet
   facet normal -9.807853e-001 -0.000000e+000 -1.950903e-001
      outer loop
         vertex 3.340858e+000 9.929961e+001 3.691342e+001
         vertex 3.721460e+000 1.022996e+002 3.500000e+001
         vertex 3.721460e+000 9.929961e+001 3.500000e+001
      endloop
   endfacet
   facet normal -8.314695e-001 -0.000000e+000 -5.555704e-001
      outer loop
         vertex 2.256994e+000 9.929961e+001 3.853553e+001
         vertex 2.256994e+000 1.022996e+002 3.853553e+001
         vertex 3.340858e+000 1.022996e+002 3.691342e+001
      endloop
   endfacet
   facet normal -1.950910e-001 -0.000000e+000 -9.807851e-001
      outer loop
         vertex -1.278540e+000 9.929961e+001 4.000000e+001
         vertex -1.278540e+000 1.022996e+002 4.000000e+001
         vertex 6.348770e-001 1.022996e+002 3.961940e+001
      endloop
   endfacet
   facet normal 5.555697e-001 0.000000e+000 -8.314700e-001
      outer loop
         vertex -4.814074e+000 9.929961e+001 3.853553e+001
         vertex -4.814074e+000 1.022996e+002 3.853553e+001
         vertex -3.191957e+000 1.022996e+002 3.961940e+001
      endloop
   endfacet
   facet normal 9.807853e-001 0.000000e+000 -1.950903e-001
      outer loop
         vertex -6.278540e+000 9.929961e+001 3.500000e+001
         vertex -6.278540e+000 1.022996e+002 3.500000e+001
         vertex -5.897938e+000 1.022996e+002 3.691342e+001
      endloop
   endfacet
   facet normal 8.314695e-001 0.000000e+000 5.555704e-001
      outer loop
         vertex -4.814074e+000 9.929961e+001 3.146447e+001
         vertex -4.814074e+000 1.022996e+002 3.146447e+001
         vertex -5.897938e+000 1.022996e+002 3.308658e+001
      endloop
   endfacet
   facet normal 1.950901e-001 0.000000e+000 9.807853e-001
      outer loop
         vertex -1.278540e+000 9.929961e+001 3.000000e+001
         vertex -1.278540e+000 1.022996e+002 3.000000e+001
         vertex -3.191957e+000 1.022996e+002 3.038060e+001
      endloop
   endfacet
   facet normal -5.555704e-001 0.000000e+000 8.314695e-001
      outer loop
         vertex 2.256994e+000 9.929961e+001 3.146447e+001
         vertex 2.256994e+000 1.022996e+002 3.146447e+001
         vertex 6.348770e-001 1.022996e+002 3.038060e+001
      endloop
   endfacet
   facet normal -9.807853e-001 0.000000e+000 1.950903e-001
      outer loop
         vertex 3.721460e+000 9.929961e+001 3.500000e+001
         vertex 3.721460e+000 1.022996e+002 3.500000e+001
         vertex 3.340858e+000 1.022996e+002 3.308658e+001
      endloop
   endfacet
   facet normal -8.314695e-001 0.000000e+000 5.555704e-001
      outer loop
         vertex 2.256994e+000 1.022996e+002 3.146447e+001
         vertex 2.256994e+000 9.929961e+001 3.146447e+001
         vertex 3.340858e+000 9.929961e+001 3.308658e+001
      endloop
   endfacet
   facet normal -1.950901e-001 0.000000e+000 9.807853e-001
      outer loop
         vertex -1.278540e+000 1.022996e+002 3.000000e+001
         vertex -1.278540e+000 9.929961e+001 3.000000e+001
         vertex 6.348770e-001 9.929961e+001 3.038060e+001
      endloop
   endfacet
   facet normal 5.555704e-001 -0.000000e+000 8.314695e-001
      outer loop
         vertex -4.814074e+000 1.022996e+002 3.146447e+001
         vertex -4.814074e+000 9.929961e+001 3.146447e+001
         vertex -3.191957e+000 9.929961e+001 3.038060e+001
      endloop
   endfacet
   facet normal 9.807853e-001 -0.000000e+000 1.950903e-001
      outer loop
         vertex -6.278540e+000 1.022996e+002 3.500000e+001
         vertex -6.278540e+000 9.929961e+001 3.500000e+001
         vertex -5.897938e+000 9.929961e+001 3.308658e+001
      endloop
   endfacet
   facet normal 8.314695e-001 0.000000e+000 -5.555704e-001
      outer loop
         vertex -4.814074e+000 1.022996e+002 3.853553e+001
         vertex -4.814074e+000 9.929961e+001 3.853553e+001
         vertex -5.897938e+000 9.929961e+001 3.691342e+001
      endloop
   endfacet
   facet normal 1.950910e-001 0.000000e+000 -9.807851e-001
      outer loop
         vertex -1.278540e+000 1.022996e+002 4.000000e+001
         vertex -1.278540e+000 9.929961e+001 4.000000e+001
         vertex -3.191957e+000 9.929961e+001 3.961940e+001
      endloop
   endfacet
   facet normal -5.555697e-001 0.000000e+000 -8.314700e-001
      outer loop
         vertex 2.256994e+000 1.022996e+002 3.853553e+001
         vertex 2.256994e+000 9.929961e+001 3.853553e+001
         vertex 6.348770e-001 9.929961e+001 3.961940e+001
      endloop
   endfacet
   facet normal -9.807853e-001 0.000000e+000 -1.950903e-001
      outer loop
         vertex 3.340858e+000 1.022996e+002 3.691342e+001
         vertex 3.721460e+000 1.022996e+002 3.500000e+001
         vertex 3.340858e+000 9.929961e+001 3.691342e+001
      endloop
   endfacet
   facet normal 5.555697e-001 0.000000e+000 -8.314700e-001
      outer loop
         vertex -3.191957e+000 9.929961e+001 3.961940e+001
         vertex -4.814074e+000 9.929961e+001 3.853553e+001
         vertex -3.191957e+000 1.022996e+002 3.961940e+001
      endloop
   endfacet
   facet normal 1.950901e-001 0.000000e+000 9.807853e-001
      outer loop
         vertex -3.191957e+000 9.929961e+001 3.038060e+001
         vertex -1.278540e+000 9.929961e+001 3.000000e+001
         vertex -3.191957e+000 1.022996e+002 3.038060e+001
      endloop
   endfacet
   facet normal -8.314695e-001 0.000000e+000 5.555704e-001
      outer loop
         vertex 3.340858e+000 1.022996e+002 3.308658e+001
         vertex 2.256994e+000 1.022996e+002 3.146447e+001
         vertex 3.340858e+000 9.929961e+001 3.308658e+001
      endloop
   endfacet
   facet normal 9.807853e-001 0.000000e+000 1.950903e-001
      outer loop
         vertex -5.897938e+000 1.022996e+002 3.308658e+001
         vertex -6.278540e+000 1.022996e+002 3.500000e+001
         vertex -5.897938e+000 9.929961e+001 3.308658e+001
      endloop
   endfacet
   facet normal -5.555697e-001 0.000000e+000 -8.314700e-001
      outer loop
         vertex 6.348770e-001 1.022996e+002 3.961940e+001
         vertex 2.256994e+000 1.022996e+002 3.853553e+001
         vertex 6.348770e-001 9.929961e+001 3.961940e+001
      endloop
   endfacet
   facet normal 5.555704e-001 -0.000000e+000 8.314695e-001
      outer loop
         vertex -4.814074e+000 1.022996e+002 3.146447e+001
         vertex -3.191957e+000 9.929961e+001 3.038060e+001
         vertex -3.191957e+000 1.022996e+002 3.038060e+001
      endloop
   endfacet
   facet normal 1.950910e-001 0.000000e+000 -9.807851e-001
      outer loop
         vertex -3.191957e+000 9.929961e+001 3.961940e+001
         vertex -3.191957e+000 1.022996e+002 3.961940e+001
         vertex -1.278540e+000 1.022996e+002 4.000000e+001
      endloop
   endfacet
   facet normal -1.950901e-001 0.000000e+000 9.807853e-001
      outer loop
         vertex 6.348770e-001 9.929961e+001 3.038060e+001
         vertex 6.348770e-001 1.022996e+002 3.038060e+001
         vertex -1.278540e+000 1.022996e+002 3.000000e+001
      endloop
   endfacet
   facet normal -5.555704e-001 0.000000e+000 8.314695e-001
      outer loop
         vertex 6.348770e-001 1.022996e+002 3.038060e+001
         vertex 6.348770e-001 9.929961e+001 3.038060e+001
         vertex 2.256994e+000 9.929961e+001 3.146447e+001
      endloop
   endfacet
   facet normal 9.807853e-001 0.000000e+000 -1.950903e-001
      outer loop
         vertex -5.897938e+000 1.022996e+002 3.691342e+001
         vertex -5.897938e+000 9.929961e+001 3.691342e+001
         vertex -6.278540e+000 9.929961e+001 3.500000e+001
      endloop
   endfacet
   facet normal -8.314695e-001 0.000000e+000 -5.555704e-001
      outer loop
         vertex 3.340858e+000 1.022996e+002 3.691342e+001
         vertex 3.340858e+000 9.929961e+001 3.691342e+001
         vertex 2.256994e+000 9.929961e+001 3.853553e+001
      endloop
   endfacet
   facet normal 8.314695e-001 0.000000e+000 5.555704e-001
      outer loop
         vertex -5.897938e+000 9.929961e+001 3.308658e+001
         vertex -4.814074e+000 9.929961e+001 3.146447e+001
         vertex -5.897938e+000 1.022996e+002 3.308658e+001
      endloop
   endfacet
   facet normal -9.807853e-001 0.000000e+000 1.950903e-001
      outer loop
         vertex 3.721460e+000 9.929961e+001 3.500000e+001
         vertex 3.340858e+000 1.022996e+002 3.308658e+001
         vertex 3.340858e+000 9.929961e+001 3.308658e+001
      endloop
   endfacet
   facet normal 8.314695e-001 0.000000e+000 -5.555704e-001
      outer loop
         vertex -5.897938e+000 9.929961e+001 3.691342e+001
         vertex -5.897938e+000 1.022996e+002 3.691342e+001
         vertex -4.814074e+000 1.022996e+002 3.853553e+001
      endloop
   endfacet
   facet normal -1.950910e-001 0.000000e+000 -9.807851e-001
      outer loop
         vertex 6.348770e-001 9.929961e+001 3.961940e+001
         vertex -1.278540e+000 9.929961e+001 4.000000e+001
         vertex 6.348770e-001 1.022996e+002 3.961940e+001
      endloop
   endfacet
   facet normal -1.000000e+000 0.000000e+000 0.000000e+000
      outer loop
         vertex 3.972146e+001 9.929961e+001 -6.500000e+000
         vertex 3.972146e+001 9.929961e+001 6.500000e+000
         vertex 3.972146e+001 1.002996e+002 6.500000e+000
      endloop
   endfacet
   facet normal -1.000000e+000 0.000000e+000 -0.000000e+000
      outer loop
         vertex 3.972146e+001 9.929961e+001 -6.500000e+000
         vertex 3.972146e+001 1.002996e+002 6.500000e+000
         vertex 3.972146e+001 1.002996e+002 -6.500000e+000
      endloop
   endfacet
   facet normal 1.000000e+000 0.000000e+000 -0.000000e+000
      outer loop
         vertex 1.372146e+001 9.929961e+001 -6.500000e+000
         vertex 1.372146e+001 1.002996e+002 -6.500000e+000
         vertex 1.372146e+001 1.002996e+002 6.500000e+000
      endloop
   endfacet
   facet normal 1.000000e+000 0.000000e+000 0.000000e+000
      outer loop
         vertex 1.372146e+001 9.929961e+001 -6.500000e+000
         vertex 1.372146e+001 1.002996e+002 6.500000e+000
         vertex 1.372146e+001 9.929961e+001 6.500000e+000
      endloop
   endfacet
   facet normal 1.000000e+000 0.000000e+000 -0.000000e+000
      outer loop
         vertex 9.721459e+000 1.002996e+002 -6.500000e+000
         vertex 9.721459e+000 1.022996e+002 -6.500000e+000
         vertex 9.721459e+000 1.022996e+002 6.500000e+000
      endloop
   endfacet
   facet normal 1.000000e+000 0.000000e+000 0.000000e+000
      outer loop
         vertex 9.721459e+000 1.002996e+002 -6.500000e+000
         vertex 9.721459e+000 1.022996e+002 6.500000e+000
         vertex 9.721459e+000 1.002996e+002 6.500000e+000
      endloop
   endfacet
   facet normal -0.000000e+000 1.000000e+000 0.000000e+000
      outer loop
         vertex 9.721459e+000 1.002996e+002 -6.500000e+000
         vertex 9.721459e+000 1.002996e+002 6.500000e+000
         vertex 1.372146e+001 1.002996e+002 6.500000e+000
      endloop
   endfacet
   facet normal 0.000000e+000 1.000000e+000 0.000000e+000
      outer loop
         vertex 1.372146e+001 1.002996e+002 -6.500000e+000
         vertex 9.721459e+000 1.002996e+002 -6.500000e+000
         vertex 1.372146e+001 1.002996e+002 6.500000e+000
      endloop
   endfacet
   facet normal -3.453560e-001 -4.625838e-001 -8.165448e-001
      outer loop
         vertex -8.781225e+000 9.894742e+001 -8.000000e+001
         vertex -7.497019e+000 9.798866e+001 -8.000000e+001
         vertex -1.724319e+001 8.761313e+001 -7.000000e+001
      endloop
   endfacet
   facet normal -3.453559e-001 -4.625838e-001 -8.165448e-001
      outer loop
         vertex -1.595898e+001 8.665437e+001 -7.000000e+001
         vertex -1.724319e+001 8.761313e+001 -7.000000e+001
         vertex -7.497019e+000 9.798866e+001 -8.000000e+001
      endloop
   endfacet
   facet normal -3.453560e-001 -4.625838e-001 8.165448e-001
      outer loop
         vertex -8.781225e+000 9.894742e+001 8.000000e+001
         vertex -1.595898e+001 8.665437e+001 7.000000e+001
         vertex -7.497019e+000 9.798866e+001 8.000000e+001
      endloop
   endfacet
   facet normal -3.453559e-001 -4.625838e-001 8.165448e-001
      outer loop
         vertex -1.595898e+001 8.665437e+001 7.000000e+001
         vertex -8.781225e+000 9.894742e+001 8.000000e+001
         vertex -1.724319e+001 8.761313e+001 7.000000e+001
      endloop
   endfacet
endsolid
