solid 
   facet normal -2.666913e-002 -1.600143e-001 -9.867544e-001
      outer loop
         vertex -3.322564e+001 3.460000e+001 -2.000000e+001
         vertex -3.310904e+001 3.529961e+001 -2.011660e+001
         vertex -3.117686e+001 3.489268e+001 -2.010283e+001
      endloop
   endfacet
   facet normal -2.666914e-002 -1.600143e-001 -9.867544e-001
      outer loop
         vertex -3.110904e+001 3.529961e+001 -2.017066e+001
         vertex -3.117686e+001 3.489268e+001 -2.010283e+001
         vertex -3.310904e+001 3.529961e+001 -2.011660e+001
      endloop
   endfacet
   facet normal -2.666914e-002 -1.600143e-001 9.867544e-001
      outer loop
         vertex -3.310904e+001 3.529961e+001 2.011660e+001
         vertex -3.117686e+001 3.489268e+001 2.010283e+001
         vertex -3.110904e+001 3.529961e+001 2.017066e+001
      endloop
   endfacet
   facet normal -2.666913e-002 -1.600143e-001 9.867544e-001
      outer loop
         vertex -3.117686e+001 3.489268e+001 2.010283e+001
         vertex -3.310904e+001 3.529961e+001 2.011660e+001
         vertex -3.322564e+001 3.460000e+001 2.000000e+001
      endloop
   endfacet
   facet normal 9.863947e-001 -1.643945e-001 0.000000e+000
      outer loop
         vertex -3.117686e+001 3.489268e+001 -2.000000e+001
         vertex -3.117686e+001 3.489268e+001 -2.010283e+001
         vertex -3.110904e+001 3.529961e+001 -2.017066e+001
      endloop
   endfacet
   facet normal 9.863991e-001 -1.643679e-001 0.000000e+000
      outer loop
         vertex -3.122564e+001 3.460000e+001 2.005405e+001
         vertex -3.122564e+001 3.460000e+001 -2.005405e+001
         vertex -3.121581e+001 3.465897e+001 -2.006388e+001
      endloop
   endfacet
   facet normal 9.863926e-001 -1.644068e-001 0.000000e+000
      outer loop
         vertex -3.117686e+001 3.489268e+001 -2.000000e+001
         vertex -3.117686e+001 3.489268e+001 2.000000e+001
         vertex -3.121581e+001 3.465897e+001 2.006388e+001
      endloop
   endfacet
   facet normal 9.863947e-001 -1.643945e-001 0.000000e+000
      outer loop
         vertex -3.117686e+001 3.489268e+001 2.000000e+001
         vertex -3.110904e+001 3.529961e+001 2.017066e+001
         vertex -3.117686e+001 3.489268e+001 2.010283e+001
      endloop
   endfacet
   facet normal 9.863991e-001 -1.643679e-001 0.000000e+000
      outer loop
         vertex -3.121581e+001 3.465897e+001 2.006388e+001
         vertex -3.122564e+001 3.460000e+001 2.005405e+001
         vertex -3.121581e+001 3.465897e+001 -2.006388e+001
      endloop
   endfacet
   facet normal 9.863947e-001 -1.643945e-001 0.000000e+000
      outer loop
         vertex -3.110904e+001 3.529961e+001 -2.017066e+001
         vertex -3.110904e+001 3.529961e+001 2.017066e+001
         vertex -3.117686e+001 3.489268e+001 2.000000e+001
      endloop
   endfacet
   facet normal 9.863926e-001 -1.644068e-001 0.000000e+000
      outer loop
         vertex -3.121581e+001 3.465897e+001 2.006388e+001
         vertex -3.121581e+001 3.465897e+001 -2.006388e+001
         vertex -3.117686e+001 3.489268e+001 -2.000000e+001
      endloop
   endfacet
   facet normal 9.863947e-001 -1.643945e-001 0.000000e+000
      outer loop
         vertex -3.110904e+001 3.529961e+001 -2.017066e+001
         vertex -3.117686e+001 3.489268e+001 2.000000e+001
         vertex -3.117686e+001 3.489268e+001 -2.000000e+001
      endloop
   endfacet
   facet normal -1.000000e+000 0.000000e+000 0.000000e+000
      outer loop
         vertex 4.172146e+001 -1.470039e+001 -4.000000e+001
         vertex 4.172146e+001 -1.470039e+001 4.000000e+001
         vertex 4.172146e+001 3.529961e+001 4.000000e+001
      endloop
   endfacet
   facet normal -1.000000e+000 0.000000e+000 -0.000000e+000
      outer loop
         vertex 4.172146e+001 -1.470039e+001 -4.000000e+001
         vertex 4.172146e+001 3.529961e+001 4.000000e+001
         vertex 4.172146e+001 3.529961e+001 -4.000000e+001
      endloop
   endfacet
   facet normal -9.863944e-001 1.643964e-001 0.000000e+000
      outer loop
         vertex -3.322564e+001 3.460000e+001 2.000000e+001
         vertex -3.310904e+001 3.529961e+001 2.011660e+001
         vertex -3.310904e+001 3.529961e+001 -2.011660e+001
      endloop
   endfacet
   facet normal -9.863944e-001 1.643964e-001 0.000000e+000
      outer loop
         vertex -3.322564e+001 3.460000e+001 -2.000000e+001
         vertex -3.322564e+001 3.460000e+001 2.000000e+001
         vertex -3.310904e+001 3.529961e+001 -2.011660e+001
      endloop
   endfacet
   facet normal 0.000000e+000 0.000000e+000 -1.000000e+000
      outer loop
         vertex 4.172146e+001 -1.470039e+001 -4.000000e+001
         vertex 4.172146e+001 3.529961e+001 -4.000000e+001
         vertex 4.372146e+001 3.529961e+001 -4.000000e+001
      endloop
   endfacet
   facet normal 0.000000e+000 0.000000e+000 -1.000000e+000
      outer loop
         vertex 4.372146e+001 -1.470039e+001 -4.000000e+001
         vertex 4.172146e+001 -1.470039e+001 -4.000000e+001
         vertex 4.372146e+001 3.529961e+001 -4.000000e+001
      endloop
   endfacet
   facet normal 0.000000e+000 -0.000000e+000 1.000000e+000
      outer loop
         vertex 4.172146e+001 -1.470039e+001 4.000000e+001
         vertex 4.372146e+001 -1.470039e+001 4.000000e+001
         vertex 4.372146e+001 3.529961e+001 4.000000e+001
      endloop
   endfacet
   facet normal 0.000000e+000 0.000000e+000 1.000000e+000
      outer loop
         vertex 4.172146e+001 -1.470039e+001 4.000000e+001
         vertex 4.372146e+001 3.529961e+001 4.000000e+001
         vertex 4.172146e+001 3.529961e+001 4.000000e+001
      endloop
   endfacet
   facet normal 1.000000e+000 0.000000e+000 -0.000000e+000
      outer loop
         vertex 4.372146e+001 -1.470039e+001 -4.000000e+001
         vertex 4.372146e+001 3.529961e+001 -4.000000e+001
         vertex 4.372146e+001 3.529961e+001 4.000000e+001
      endloop
   endfacet
   facet normal 1.000000e+000 0.000000e+000 0.000000e+000
      outer loop
         vertex 4.372146e+001 -1.470039e+001 4.000000e+001
         vertex 4.372146e+001 -1.470039e+001 6.000000e+001
         vertex 4.372146e+001 -1.670039e+001 6.000000e+001
      endloop
   endfacet
   facet normal 1.000000e+000 0.000000e+000 -0.000000e+000
      outer loop
         vertex 4.372146e+001 -1.670039e+001 -6.000000e+001
         vertex 4.372146e+001 -1.470039e+001 -6.000000e+001
         vertex 4.372146e+001 -1.470039e+001 -4.000000e+001
      endloop
   endfacet
   facet normal 1.000000e+000 0.000000e+000 0.000000e+000
      outer loop
         vertex 4.372146e+001 -1.470039e+001 4.000000e+001
         vertex 4.372146e+001 -1.670039e+001 6.000000e+001
         vertex 4.372146e+001 -1.670039e+001 -6.000000e+001
      endloop
   endfacet
   facet normal 1.000000e+000 -0.000000e+000 0.000000e+000
      outer loop
         vertex 4.372146e+001 3.529961e+001 4.000000e+001
         vertex 4.372146e+001 -1.470039e+001 4.000000e+001
         vertex 4.372146e+001 -1.470039e+001 -4.000000e+001
      endloop
   endfacet
   facet normal 1.000000e+000 0.000000e+000 0.000000e+000
      outer loop
         vertex 4.372146e+001 -1.470039e+001 4.000000e+001
         vertex 4.372146e+001 -1.670039e+001 -6.000000e+001
         vertex 4.372146e+001 -1.470039e+001 -4.000000e+001
      endloop
   endfacet
   facet normal 0.000000e+000 1.000000e+000 0.000000e+000
      outer loop
         vertex 4.172146e+001 3.529961e+001 4.000000e+001
         vertex 4.372146e+001 3.529961e+001 4.000000e+001
         vertex 4.372146e+001 3.529961e+001 -4.000000e+001
      endloop
   endfacet
   facet normal 0.000000e+000 1.000000e+000 0.000000e+000
      outer loop
         vertex 4.172146e+001 3.529961e+001 -4.000000e+001
         vertex 4.172146e+001 3.529961e+001 4.000000e+001
         vertex 4.372146e+001 3.529961e+001 -4.000000e+001
      endloop
   endfacet
   facet normal -0.000000e+000 1.000000e+000 0.000000e+000
      outer loop
         vertex -3.110904e+001 3.529961e+001 -2.017066e+001
         vertex -3.310904e+001 3.529961e+001 -2.011660e+001
         vertex -3.110904e+001 3.529961e+001 2.017066e+001
      endloop
   endfacet
   facet normal 0.000000e+000 1.000000e+000 0.000000e+000
      outer loop
         vertex -3.310904e+001 3.529961e+001 2.011660e+001
         vertex -3.110904e+001 3.529961e+001 2.017066e+001
         vertex -3.310904e+001 3.529961e+001 -2.011660e+001
      endloop
   endfacet
   facet normal 1.414212e-001 -9.899495e-001 0.000000e+000
      outer loop
         vertex -3.117686e+001 3.489268e+001 -2.010283e+001
         vertex -3.117686e+001 3.489268e+001 -2.000000e+001
         vertex -3.322564e+001 3.460000e+001 -2.000000e+001
      endloop
   endfacet
   facet normal 1.414212e-001 -9.899495e-001 0.000000e+000
      outer loop
         vertex -3.117686e+001 3.489268e+001 2.010283e+001
         vertex -3.322564e+001 3.460000e+001 2.000000e+001
         vertex -3.117686e+001 3.489268e+001 2.000000e+001
      endloop
   endfacet
   facet normal -3.849100e-002 2.694373e-001 9.622484e-001
      outer loop
         vertex -3.117686e+001 3.489268e+001 2.000000e+001
         vertex -3.322564e+001 3.460000e+001 2.000000e+001
         vertex -3.121581e+001 3.465897e+001 2.006388e+001
      endloop
   endfacet
   facet normal -2.666914e-002 -1.600150e-001 9.867542e-001
      outer loop
         vertex -3.322564e+001 3.460000e+001 2.000000e+001
         vertex -3.122564e+001 3.460000e+001 2.005405e+001
         vertex -3.121581e+001 3.465897e+001 2.006388e+001
      endloop
   endfacet
   facet normal -2.666913e-002 -1.600158e-001 9.867541e-001
      outer loop
         vertex -3.122564e+001 3.460000e+001 2.005405e+001
         vertex -3.322564e+001 3.460000e+001 2.000000e+001
         vertex -3.117686e+001 3.425854e+001 2.000000e+001
      endloop
   endfacet
   facet normal 9.899490e-001 1.414245e-001 -0.000000e+000
      outer loop
         vertex -2.622564e+001 -4.000000e-001 3.151911e+001
         vertex -2.626564e+001 -1.200000e-001 3.000000e+001
         vertex -2.626564e+001 -1.200000e-001 3.084265e+001
      endloop
   endfacet
   facet normal 9.899495e-001 1.414213e-001 -0.000000e+000
      outer loop
         vertex -2.626564e+001 -1.200000e-001 3.000000e+001
         vertex -3.117686e+001 3.425854e+001 2.000000e+001
         vertex -3.117686e+001 3.425854e+001 2.017756e+001
      endloop
   endfacet
   facet normal 9.899494e-001 1.414221e-001 0.000000e+000
      outer loop
         vertex -3.122564e+001 3.460000e+001 2.005405e+001
         vertex -3.117686e+001 3.425854e+001 -2.000000e+001
         vertex -3.122564e+001 3.460000e+001 -2.005405e+001
      endloop
   endfacet
   facet normal 9.899490e-001 1.414245e-001 -0.000000e+000
      outer loop
         vertex -2.622564e+001 -4.000000e-001 -3.151911e+001
         vertex -2.626564e+001 -1.200000e-001 -3.084265e+001
         vertex -2.626564e+001 -1.200000e-001 -3.000000e+001
      endloop
   endfacet
   facet normal 9.899490e-001 1.414245e-001 0.000000e+000
      outer loop
         vertex -2.622564e+001 -4.000000e-001 -3.151911e+001
         vertex -2.626564e+001 -1.200000e-001 3.000000e+001
         vertex -2.622564e+001 -4.000000e-001 3.151911e+001
      endloop
   endfacet
   facet normal 9.899490e-001 1.414245e-001 0.000000e+000
      outer loop
         vertex -2.626564e+001 -1.200000e-001 3.000000e+001
         vertex -2.622564e+001 -4.000000e-001 -3.151911e+001
         vertex -2.626564e+001 -1.200000e-001 -3.000000e+001
      endloop
   endfacet
   facet normal 9.899494e-001 1.414221e-001 0.000000e+000
      outer loop
         vertex -3.117686e+001 3.425854e+001 -2.000000e+001
         vertex -3.122564e+001 3.460000e+001 2.005405e+001
         vertex -3.117686e+001 3.425854e+001 2.000000e+001
      endloop
   endfacet
   facet normal 9.899495e-001 1.414213e-001 0.000000e+000
      outer loop
         vertex -3.117686e+001 3.425854e+001 -2.000000e+001
         vertex -2.626564e+001 -1.200000e-001 -3.000000e+001
         vertex -3.117686e+001 3.425854e+001 -2.017756e+001
      endloop
   endfacet
   facet normal 9.899495e-001 1.414213e-001 -0.000000e+000
      outer loop
         vertex -2.626564e+001 -1.200000e-001 -3.000000e+001
         vertex -3.117686e+001 3.425854e+001 -2.000000e+001
         vertex -3.117686e+001 3.425854e+001 2.000000e+001
      endloop
   endfacet
   facet normal 9.899495e-001 1.414213e-001 0.000000e+000
      outer loop
         vertex -2.626564e+001 -1.200000e-001 -3.000000e+001
         vertex -3.117686e+001 3.425854e+001 2.000000e+001
         vertex -2.626564e+001 -1.200000e-001 3.000000e+001
      endloop
   endfacet
   facet normal -2.666914e-002 -1.600150e-001 -9.867542e-001
      outer loop
         vertex -3.322564e+001 3.460000e+001 -2.000000e+001
         vertex -3.121581e+001 3.465897e+001 -2.006388e+001
         vertex -3.122564e+001 3.460000e+001 -2.005405e+001
      endloop
   endfacet
   facet normal -2.666913e-002 -1.600158e-001 -9.867541e-001
      outer loop
         vertex -3.117686e+001 3.425854e+001 -2.000000e+001
         vertex -3.322564e+001 3.460000e+001 -2.000000e+001
         vertex -3.122564e+001 3.460000e+001 -2.005405e+001
      endloop
   endfacet
   facet normal -3.849100e-002 2.694373e-001 -9.622484e-001
      outer loop
         vertex -3.117686e+001 3.489268e+001 -2.000000e+001
         vertex -3.121581e+001 3.465897e+001 -2.006388e+001
         vertex -3.322564e+001 3.460000e+001 -2.000000e+001
      endloop
   endfacet
   facet normal -0.000000e+000 1.000000e+000 0.000000e+000
      outer loop
         vertex -1.678417e+001 -1.470039e+001 -6.000000e+001
         vertex -2.151828e+001 -1.470039e+001 -5.892262e+001
         vertex -2.151828e+001 -1.470039e+001 5.892262e+001
      endloop
   endfacet
   facet normal 0.000000e+000 1.000000e+000 0.000000e+000
      outer loop
         vertex 4.172146e+001 -1.470039e+001 -4.000000e+001
         vertex 4.372146e+001 -1.470039e+001 -4.000000e+001
         vertex 4.372146e+001 -1.470039e+001 -6.000000e+001
      endloop
   endfacet
   facet normal 0.000000e+000 1.000000e+000 -0.000000e+000
      outer loop
         vertex 4.372146e+001 -1.470039e+001 6.000000e+001
         vertex 4.372146e+001 -1.470039e+001 4.000000e+001
         vertex 4.172146e+001 -1.470039e+001 4.000000e+001
      endloop
   endfacet
   facet normal -0.000000e+000 1.000000e+000 0.000000e+000
      outer loop
         vertex -1.678417e+001 -1.470039e+001 -6.000000e+001
         vertex -2.151828e+001 -1.470039e+001 5.892262e+001
         vertex -1.678417e+001 -1.470039e+001 6.000000e+001
      endloop
   endfacet
   facet normal 0.000000e+000 1.000000e+000 0.000000e+000
      outer loop
         vertex -1.678417e+001 -1.470039e+001 6.000000e+001
         vertex 4.372146e+001 -1.470039e+001 6.000000e+001
         vertex 4.172146e+001 -1.470039e+001 4.000000e+001
      endloop
   endfacet
   facet normal 0.000000e+000 1.000000e+000 0.000000e+000
      outer loop
         vertex 4.172146e+001 -1.470039e+001 -4.000000e+001
         vertex 4.372146e+001 -1.470039e+001 -6.000000e+001
         vertex -1.678417e+001 -1.470039e+001 -6.000000e+001
      endloop
   endfacet
   facet normal 0.000000e+000 1.000000e+000 0.000000e+000
      outer loop
         vertex 4.172146e+001 -1.470039e+001 -4.000000e+001
         vertex -1.678417e+001 -1.470039e+001 -6.000000e+001
         vertex -1.678417e+001 -1.470039e+001 6.000000e+001
      endloop
   endfacet
   facet normal 0.000000e+000 1.000000e+000 -0.000000e+000
      outer loop
         vertex 4.172146e+001 -1.470039e+001 4.000000e+001
         vertex 4.172146e+001 -1.470039e+001 -4.000000e+001
         vertex -1.678417e+001 -1.470039e+001 6.000000e+001
      endloop
   endfacet
   facet normal -9.899495e-001 -1.414214e-001 -0.000000e+000
      outer loop
         vertex -2.822564e+001 -4.000000e-001 -3.000000e+001
         vertex -2.822564e+001 -4.000000e-001 3.000000e+001
         vertex -3.322564e+001 3.460000e+001 2.000000e+001
      endloop
   endfacet
   facet normal -9.899495e-001 -1.414214e-001 0.000000e+000
      outer loop
         vertex -3.322564e+001 3.460000e+001 -2.000000e+001
         vertex -2.822564e+001 -4.000000e-001 -3.000000e+001
         vertex -3.322564e+001 3.460000e+001 2.000000e+001
      endloop
   endfacet
   facet normal 0.000000e+000 -0.000000e+000 1.000000e+000
      outer loop
         vertex -1.678417e+001 -1.470039e+001 6.000000e+001
         vertex 4.372146e+001 -1.670039e+001 6.000000e+001
         vertex 4.372146e+001 -1.470039e+001 6.000000e+001
      endloop
   endfacet
   facet normal 0.000000e+000 0.000000e+000 1.000000e+000
      outer loop
         vertex 4.372146e+001 -1.670039e+001 6.000000e+001
         vertex -1.678417e+001 -1.470039e+001 6.000000e+001
         vertex -2.285993e+001 -1.670039e+001 6.000000e+001
      endloop
   endfacet
   facet normal -0.000000e+000 -1.000000e+000 -0.000000e+000
      outer loop
         vertex 4.372146e+001 -1.670039e+001 -6.000000e+001
         vertex 4.372146e+001 -1.670039e+001 6.000000e+001
         vertex -2.285993e+001 -1.670039e+001 6.000000e+001
      endloop
   endfacet
   facet normal 0.000000e+000 -1.000000e+000 0.000000e+000
      outer loop
         vertex -2.285993e+001 -1.670039e+001 -6.000000e+001
         vertex 4.372146e+001 -1.670039e+001 -6.000000e+001
         vertex -2.285993e+001 -1.670039e+001 6.000000e+001
      endloop
   endfacet
   facet normal -0.000000e+000 -0.000000e+000 -1.000000e+000
      outer loop
         vertex -1.678417e+001 -1.470039e+001 -6.000000e+001
         vertex 4.372146e+001 -1.470039e+001 -6.000000e+001
         vertex 4.372146e+001 -1.670039e+001 -6.000000e+001
      endloop
   endfacet
   facet normal 0.000000e+000 -0.000000e+000 -1.000000e+000
      outer loop
         vertex -2.285993e+001 -1.670039e+001 -6.000000e+001
         vertex -1.678417e+001 -1.470039e+001 -6.000000e+001
         vertex 4.372146e+001 -1.670039e+001 -6.000000e+001
      endloop
   endfacet
   facet normal 1.643979e-001 9.863941e-001 -0.000000e+000
      outer loop
         vertex -3.117686e+001 3.425854e+001 2.017756e+001
         vertex -3.117686e+001 3.425854e+001 2.000000e+001
         vertex -3.322564e+001 3.460000e+001 2.000000e+001
      endloop
   endfacet
   facet normal -2.891331e-001 8.783506e-001 3.806603e-001
      outer loop
         vertex -2.622564e+001 -4.000000e-001 3.151911e+001
         vertex -2.626564e+001 -1.200000e-001 3.084265e+001
         vertex -2.822564e+001 -4.000000e-001 3.000000e+001
      endloop
   endfacet
   facet normal -2.891328e-001 8.783509e-001 3.806598e-001
      outer loop
         vertex -2.622564e+001 -4.000000e-001 3.151911e+001
         vertex -2.500784e+001 -1.017528e+001 5.500000e+001
         vertex -2.320337e+001 -9.581289e+000 5.500000e+001
      endloop
   endfacet
   facet normal -2.891327e-001 8.783509e-001 3.806598e-001
      outer loop
         vertex -2.822564e+001 -4.000000e-001 3.000000e+001
         vertex -2.500784e+001 -1.017528e+001 5.500000e+001
         vertex -2.622564e+001 -4.000000e-001 3.151911e+001
      endloop
   endfacet
   facet normal 9.498611e-001 3.126723e-001 5.654477e-008
      outer loop
         vertex -2.151828e+001 -1.470039e+001 5.892262e+001
         vertex -2.622564e+001 -4.000000e-001 3.151911e+001
         vertex -2.320337e+001 -9.581289e+000 5.500000e+001
      endloop
   endfacet
   facet normal 9.498611e-001 3.126723e-001 -5.654477e-008
      outer loop
         vertex -2.151828e+001 -1.470039e+001 -5.892262e+001
         vertex -2.320337e+001 -9.581289e+000 -5.500000e+001
         vertex -2.622564e+001 -4.000000e-001 -3.151911e+001
      endloop
   endfacet
   facet normal 9.498611e-001 3.126722e-001 0.000000e+000
      outer loop
         vertex -2.151828e+001 -1.470039e+001 -5.892262e+001
         vertex -2.622564e+001 -4.000000e-001 3.151911e+001
         vertex -2.151828e+001 -1.470039e+001 5.892262e+001
      endloop
   endfacet
   facet normal 9.498611e-001 3.126722e-001 -0.000000e+000
      outer loop
         vertex -2.151828e+001 -1.470039e+001 -5.892262e+001
         vertex -2.622564e+001 -4.000000e-001 -3.151911e+001
         vertex -2.622564e+001 -4.000000e-001 3.151911e+001
      endloop
   endfacet
   facet normal -2.891327e-001 8.783509e-001 -3.806598e-001
      outer loop
         vertex -2.500784e+001 -1.017528e+001 -5.500000e+001
         vertex -2.822564e+001 -4.000000e-001 -3.000000e+001
         vertex -2.622564e+001 -4.000000e-001 -3.151911e+001
      endloop
   endfacet
   facet normal -2.891331e-001 8.783506e-001 -3.806603e-001
      outer loop
         vertex -2.626564e+001 -1.200000e-001 -3.084265e+001
         vertex -2.622564e+001 -4.000000e-001 -3.151911e+001
         vertex -2.822564e+001 -4.000000e-001 -3.000000e+001
      endloop
   endfacet
   facet normal -2.891328e-001 8.783509e-001 -3.806598e-001
      outer loop
         vertex -2.500784e+001 -1.017528e+001 -5.500000e+001
         vertex -2.622564e+001 -4.000000e-001 -3.151911e+001
         vertex -2.320337e+001 -9.581289e+000 -5.500000e+001
      endloop
   endfacet
   facet normal -1.414214e-001 9.899495e-001 0.000000e+000
      outer loop
         vertex -2.626564e+001 -1.200000e-001 -3.084265e+001
         vertex -2.822564e+001 -4.000000e-001 -3.000000e+001
         vertex -2.626564e+001 -1.200000e-001 -3.000000e+001
      endloop
   endfacet
   facet normal -3.849024e-002 2.694301e-001 -9.622504e-001
      outer loop
         vertex -2.822564e+001 -4.000000e-001 -3.000000e+001
         vertex -3.322564e+001 3.460000e+001 -2.000000e+001
         vertex -3.117686e+001 3.425854e+001 -2.017756e+001
      endloop
   endfacet
   facet normal -3.849004e-002 2.694301e-001 -9.622504e-001
      outer loop
         vertex -2.626564e+001 -1.200000e-001 -3.000000e+001
         vertex -2.822564e+001 -4.000000e-001 -3.000000e+001
         vertex -3.117686e+001 3.425854e+001 -2.017756e+001
      endloop
   endfacet
   facet normal 1.643979e-001 9.863941e-001 0.000000e+000
      outer loop
         vertex -3.117686e+001 3.425854e+001 -2.017756e+001
         vertex -3.322564e+001 3.460000e+001 -2.000000e+001
         vertex -3.117686e+001 3.425854e+001 -2.000000e+001
      endloop
   endfacet
   facet normal -3.849024e-002 2.694301e-001 9.622504e-001
      outer loop
         vertex -2.822564e+001 -4.000000e-001 3.000000e+001
         vertex -3.117686e+001 3.425854e+001 2.017756e+001
         vertex -3.322564e+001 3.460000e+001 2.000000e+001
      endloop
   endfacet
   facet normal -3.849004e-002 2.694301e-001 9.622504e-001
      outer loop
         vertex -3.117686e+001 3.425854e+001 2.017756e+001
         vertex -2.822564e+001 -4.000000e-001 3.000000e+001
         vertex -2.626564e+001 -1.200000e-001 3.000000e+001
      endloop
   endfacet
   facet normal -1.414214e-001 9.899495e-001 0.000000e+000
      outer loop
         vertex -2.626564e+001 -1.200000e-001 3.084265e+001
         vertex -2.626564e+001 -1.200000e-001 3.000000e+001
         vertex -2.822564e+001 -4.000000e-001 3.000000e+001
      endloop
   endfacet
   facet normal -1.840005e-001 5.589715e-001 8.085139e-001
      outer loop
         vertex -2.151828e+001 -1.470039e+001 5.892262e+001
         vertex -2.320337e+001 -9.581289e+000 5.500000e+001
         vertex -2.500784e+001 -1.017528e+001 5.500000e+001
      endloop
   endfacet
   facet normal -1.840006e-001 5.589720e-001 8.085135e-001
      outer loop
         vertex -2.151828e+001 -1.470039e+001 5.892262e+001
         vertex -2.285993e+001 -1.670039e+001 6.000000e+001
         vertex -1.678417e+001 -1.470039e+001 6.000000e+001
      endloop
   endfacet
   facet normal -1.840001e-001 5.589718e-001 8.085138e-001
      outer loop
         vertex -2.500784e+001 -1.017528e+001 5.500000e+001
         vertex -2.285993e+001 -1.670039e+001 6.000000e+001
         vertex -2.151828e+001 -1.470039e+001 5.892262e+001
      endloop
   endfacet
   facet normal -1.840001e-001 5.589718e-001 -8.085138e-001
      outer loop
         vertex -2.285993e+001 -1.670039e+001 -6.000000e+001
         vertex -2.500784e+001 -1.017528e+001 -5.500000e+001
         vertex -2.151828e+001 -1.470039e+001 -5.892262e+001
      endloop
   endfacet
   facet normal -1.840005e-001 5.589715e-001 -8.085139e-001
      outer loop
         vertex -2.320337e+001 -9.581289e+000 -5.500000e+001
         vertex -2.151828e+001 -1.470039e+001 -5.892262e+001
         vertex -2.500784e+001 -1.017528e+001 -5.500000e+001
      endloop
   endfacet
   facet normal -1.840006e-001 5.589720e-001 -8.085135e-001
      outer loop
         vertex -2.285993e+001 -1.670039e+001 -6.000000e+001
         vertex -2.151828e+001 -1.470039e+001 -5.892262e+001
         vertex -1.678417e+001 -1.470039e+001 -6.000000e+001
      endloop
   endfacet
   facet normal -9.498611e-001 -3.126722e-001 -0.000000e+000
      outer loop
         vertex -2.285993e+001 -1.670039e+001 -6.000000e+001
         vertex -2.285993e+001 -1.670039e+001 6.000000e+001
         vertex -2.822564e+001 -4.000000e-001 -3.000000e+001
      endloop
   endfacet
   facet normal -9.498611e-001 -3.126723e-001 -4.383100e-008
      outer loop
         vertex -2.500784e+001 -1.017528e+001 5.500000e+001
         vertex -2.822564e+001 -4.000000e-001 3.000000e+001
         vertex -2.285993e+001 -1.670039e+001 6.000000e+001
      endloop
   endfacet
   facet normal -9.498611e-001 -3.126723e-001 4.383100e-008
      outer loop
         vertex -2.500784e+001 -1.017528e+001 -5.500000e+001
         vertex -2.285993e+001 -1.670039e+001 -6.000000e+001
         vertex -2.822564e+001 -4.000000e-001 -3.000000e+001
      endloop
   endfacet
   facet normal -9.498611e-001 -3.126722e-001 0.000000e+000
      outer loop
         vertex -2.822564e+001 -4.000000e-001 3.000000e+001
         vertex -2.822564e+001 -4.000000e-001 -3.000000e+001
         vertex -2.285993e+001 -1.670039e+001 6.000000e+001
      endloop
   endfacet
endsolid
