solid 
   facet normal 1.000000e+000 0.000000e+000 0.000000e+000
      outer loop
         vertex 0.000000e+000 -2.377620e+001 2.975396e+000
         vertex 0.000000e+000 -2.477620e+001 4.075396e+000
         vertex 0.000000e+000 -2.477620e+001 -6.324605e+000
      endloop
   endfacet
   facet normal 1.000000e+000 0.000000e+000 -0.000000e+000
      outer loop
         vertex 0.000000e+000 -1.276197e+000 1.025396e+000
         vertex 0.000000e+000 -2.761975e-001 -6.324605e+000
         vertex 0.000000e+000 -2.761975e-001 4.075396e+000
      endloop
   endfacet
   facet normal 1.000000e+000 0.000000e+000 -0.000000e+000
      outer loop
         vertex 0.000000e+000 -2.477620e+001 -6.324605e+000
         vertex 0.000000e+000 -2.377620e+001 -5.424604e+000
         vertex 0.000000e+000 -2.377620e+001 2.975396e+000
      endloop
   endfacet
   facet normal 1.000000e+000 0.000000e+000 0.000000e+000
      outer loop
         vertex 0.000000e+000 -2.761975e-001 -6.324605e+000
         vertex 0.000000e+000 -1.276197e+000 1.025396e+000
         vertex 0.000000e+000 -1.276197e+000 -3.474604e+000
      endloop
   endfacet
   facet normal 1.000000e+000 -0.000000e+000 0.000000e+000
      outer loop
         vertex 0.000000e+000 -2.761975e-001 4.075396e+000
         vertex 0.000000e+000 -2.477620e+001 4.075396e+000
         vertex 0.000000e+000 -2.377620e+001 2.975396e+000
      endloop
   endfacet
   facet normal 1.000000e+000 0.000000e+000 0.000000e+000
      outer loop
         vertex 0.000000e+000 -2.377620e+001 -5.424604e+000
         vertex 0.000000e+000 -2.761975e-001 -6.324605e+000
         vertex 0.000000e+000 -1.276197e+000 -3.474604e+000
      endloop
   endfacet
   facet normal 1.000000e+000 0.000000e+000 0.000000e+000
      outer loop
         vertex 0.000000e+000 -2.377620e+001 -5.424604e+000
         vertex 0.000000e+000 -2.477620e+001 -6.324605e+000
         vertex 0.000000e+000 -2.761975e-001 -6.324605e+000
      endloop
   endfacet
   facet normal 1.000000e+000 0.000000e+000 -0.000000e+000
      outer loop
         vertex 0.000000e+000 -2.377620e+001 2.975396e+000
         vertex 0.000000e+000 -1.276197e+000 1.025396e+000
         vertex 0.000000e+000 -2.761975e-001 4.075396e+000
      endloop
   endfacet
   facet normal 0.000000e+000 -1.000000e+000 0.000000e+000
      outer loop
         vertex -4.000000e+000 -1.276197e+000 1.025396e+000
         vertex -4.000000e+000 -1.276197e+000 -3.474604e+000
         vertex 0.000000e+000 -1.276197e+000 -3.474604e+000
      endloop
   endfacet
   facet normal 0.000000e+000 -1.000000e+000 0.000000e+000
      outer loop
         vertex -4.000000e+000 -1.276197e+000 1.025396e+000
         vertex 0.000000e+000 -1.276197e+000 -3.474604e+000
         vertex 0.000000e+000 -1.276197e+000 1.025396e+000
      endloop
   endfacet
   facet normal 0.000000e+000 -8.634301e-002 9.962655e-001
      outer loop
         vertex -4.000000e+000 -1.276197e+000 -3.474604e+000
         vertex -4.000000e+000 -2.377620e+001 -5.424604e+000
         vertex 0.000000e+000 -2.377620e+001 -5.424604e+000
      endloop
   endfacet
   facet normal 0.000000e+000 -8.634301e-002 9.962655e-001
      outer loop
         vertex -4.000000e+000 -1.276197e+000 -3.474604e+000
         vertex 0.000000e+000 -2.377620e+001 -5.424604e+000
         vertex 0.000000e+000 -1.276197e+000 -3.474604e+000
      endloop
   endfacet
   facet normal -0.000000e+000 1.000000e+000 0.000000e+000
      outer loop
         vertex -4.000000e+000 -2.377620e+001 -5.424604e+000
         vertex -4.000000e+000 -2.377620e+001 2.975396e+000
         vertex 0.000000e+000 -2.377620e+001 2.975396e+000
      endloop
   endfacet
   facet normal 0.000000e+000 1.000000e+000 0.000000e+000
      outer loop
         vertex -4.000000e+000 -2.377620e+001 -5.424604e+000
         vertex 0.000000e+000 -2.377620e+001 2.975396e+000
         vertex 0.000000e+000 -2.377620e+001 -5.424604e+000
      endloop
   endfacet
   facet normal 0.000000e+000 -8.634300e-002 -9.962655e-001
      outer loop
         vertex -4.000000e+000 -2.377620e+001 2.975396e+000
         vertex -4.000000e+000 -1.276197e+000 1.025396e+000
         vertex 0.000000e+000 -1.276197e+000 1.025396e+000
      endloop
   endfacet
   facet normal 0.000000e+000 -8.634300e-002 -9.962655e-001
      outer loop
         vertex -4.000000e+000 -2.377620e+001 2.975396e+000
         vertex 0.000000e+000 -1.276197e+000 1.025396e+000
         vertex 0.000000e+000 -2.377620e+001 2.975396e+000
      endloop
   endfacet
   facet normal -0.000000e+000 -0.000000e+000 -1.000000e+000
      outer loop
         vertex -5.000000e+000 -2.761975e-001 -6.324605e+000
         vertex 0.000000e+000 -2.761975e-001 -6.324605e+000
         vertex 0.000000e+000 -2.477620e+001 -6.324605e+000
      endloop
   endfacet
   facet normal 0.000000e+000 0.000000e+000 -1.000000e+000
      outer loop
         vertex -5.000000e+000 -2.477620e+001 -6.324605e+000
         vertex -5.000000e+000 -2.761975e-001 -6.324605e+000
         vertex 0.000000e+000 -2.477620e+001 -6.324605e+000
      endloop
   endfacet
   facet normal 0.000000e+000 1.000000e+000 0.000000e+000
      outer loop
         vertex -5.000000e+000 -2.761975e-001 4.075396e+000
         vertex 0.000000e+000 -2.761975e-001 4.075396e+000
         vertex 0.000000e+000 -2.761975e-001 -6.324605e+000
      endloop
   endfacet
   facet normal 0.000000e+000 1.000000e+000 0.000000e+000
      outer loop
         vertex -5.000000e+000 -2.761975e-001 -6.324605e+000
         vertex -5.000000e+000 -2.761975e-001 4.075396e+000
         vertex 0.000000e+000 -2.761975e-001 -6.324605e+000
      endloop
   endfacet
   facet normal 0.000000e+000 -0.000000e+000 1.000000e+000
      outer loop
         vertex -5.000000e+000 -2.477620e+001 4.075396e+000
         vertex 0.000000e+000 -2.477620e+001 4.075396e+000
         vertex 0.000000e+000 -2.761975e-001 4.075396e+000
      endloop
   endfacet
   facet normal 0.000000e+000 0.000000e+000 1.000000e+000
      outer loop
         vertex -5.000000e+000 -2.761975e-001 4.075396e+000
         vertex -5.000000e+000 -2.477620e+001 4.075396e+000
         vertex 0.000000e+000 -2.761975e-001 4.075396e+000
      endloop
   endfacet
   facet normal 0.000000e+000 -1.000000e+000 0.000000e+000
      outer loop
         vertex -5.000000e+000 -2.477620e+001 -6.324605e+000
         vertex 0.000000e+000 -2.477620e+001 -6.324605e+000
         vertex 0.000000e+000 -2.477620e+001 4.075396e+000
      endloop
   endfacet
   facet normal 0.000000e+000 -1.000000e+000 0.000000e+000
      outer loop
         vertex -5.000000e+000 -2.477620e+001 4.075396e+000
         vertex -5.000000e+000 -2.477620e+001 -6.324605e+000
         vertex 0.000000e+000 -2.477620e+001 4.075396e+000
      endloop
   endfacet
   facet normal 1.000000e+000 0.000000e+000 0.000000e+000
      outer loop
         vertex -4.000000e+000 -1.276197e+000 -3.474604e+000
         vertex -4.000000e+000 -1.276197e+000 1.025396e+000
         vertex -4.000000e+000 -2.377620e+001 2.975396e+000
      endloop
   endfacet
   facet normal 1.000000e+000 0.000000e+000 0.000000e+000
      outer loop
         vertex -4.000000e+000 -2.377620e+001 -5.424604e+000
         vertex -4.000000e+000 -1.276197e+000 -3.474604e+000
         vertex -4.000000e+000 -2.377620e+001 2.975396e+000
      endloop
   endfacet
   facet normal -1.000000e+000 0.000000e+000 0.000000e+000
      outer loop
         vertex -5.000000e+000 -2.761975e-001 -6.324605e+000
         vertex -5.000000e+000 -2.477620e+001 -6.324605e+000
         vertex -5.000000e+000 -2.477620e+001 4.075396e+000
      endloop
   endfacet
   facet normal -1.000000e+000 0.000000e+000 0.000000e+000
      outer loop
         vertex -5.000000e+000 -2.761975e-001 4.075396e+000
         vertex -5.000000e+000 -2.761975e-001 -6.324605e+000
         vertex -5.000000e+000 -2.477620e+001 4.075396e+000
      endloop
   endfacet
endsolid
